<svg width="1929" height="668" viewBox="0 0 1929 668" fill="none" xmlns="http://www.w3.org/2000/svg">
<path d="M142.5 88V308H225.5C232.167 308 238.167 306 243.5 302L344.5 222C353.167 215.333 357.5 206.833 357.5 196.5V88H462.5V224C462.5 236.667 459.833 248.667 454.5 260C449.5 271.333 442 281.167 432 289.5L270 424C258.667 433.333 245.667 438 231 438H17.5V88H142.5ZM496.88 199H521.88V170.5H496.88V88H931.88V170.5H626.88V199H931.88V281.5H626.88V292.5C626.88 296.833 628.38 300.5 631.38 303.5C634.714 306.5 638.714 308 643.38 308H931.88V438H569.88C563.214 438 556.88 436.833 550.88 434.5C545.214 432.167 540.214 429 535.88 425C531.547 420.667 528.047 415.667 525.38 410C523.047 404.333 521.88 398.333 521.88 392V281.5H496.88V199ZM966.495 308H1002C1009 308 1015 306.667 1020 304C1025.33 301 1028.83 296.5 1030.5 290.5L1053 170.5H966.495V88H1069L1073.5 63.5H1178.5L1174.5 88H1431.5V235.5C1431.5 248.833 1427.16 259.833 1418.5 268.5C1409.83 277.167 1398.83 281.5 1385.5 281.5H1246L1249.5 291.5C1251.16 296.167 1254 300.167 1258 303.5C1262.33 306.5 1266.5 308 1270.5 308H1426.5V438H1243.5C1237.16 438 1230.5 436.667 1223.5 434C1216.5 431.333 1209.83 427.833 1203.5 423.5C1197.5 418.833 1192.16 413.667 1187.5 408C1182.83 402 1179.33 395.667 1177 389L1141.5 281.5H1141L1123 385.5C1120.33 400.5 1114 413 1104 423C1094 433 1081.83 438 1067.5 438H966.495V308ZM1311 199C1315.33 199 1319 197.5 1322 194.5C1325 191.5 1326.5 187.833 1326.5 183.5V170.5H1160L1155 199H1311ZM1465.9 389.5V88H1910.4L1910.9 392C1910.9 405.667 1906.56 416.833 1897.9 425.5C1889.23 433.833 1878.23 438 1864.9 438H1514.4C1507.73 438 1501.4 436.833 1495.4 434.5C1489.73 431.833 1484.56 428.333 1479.9 424C1475.56 419.333 1472.06 414.167 1469.4 408.5C1467.06 402.5 1465.9 396.167 1465.9 389.5ZM1586.9 308L1789.9 307.5C1794.23 307.5 1797.9 306 1800.9 303C1803.9 300 1805.4 296.333 1805.4 292V171H1570.9V291.5C1570.9 296.167 1572.4 300.167 1575.4 303.5C1578.73 306.5 1582.56 308 1586.9 308Z" fill="white"/>
<path d="M606.832 522.836L588.766 561.605H624.801L606.832 522.836ZM505.953 616.098L576.363 484.848H637.203L707.613 616.098H649.996L639.645 593.637H573.922L563.57 616.098H505.953ZM839.045 550.473C839.045 537.191 831.525 526.449 818.244 526.449H762.189V574.496H818.244C831.525 574.496 839.045 563.656 839.045 550.473ZM711.017 484.848H827.814C863.849 484.359 890.607 514.633 890.314 550.473C890.607 586.117 863.849 616.586 827.814 616.098H711.017V484.848ZM904.948 615.902V484.652H969.011L1020.18 550.277L1071.45 484.652H1135.42V615.902H1084.25V545.883L1032.98 615.902H1007.39L956.12 545.883V615.902H904.948ZM1164.7 484.652H1215.87V615.902H1164.7V484.652ZM1370.45 554.184V484.652H1421.72V615.902H1364.1L1293.59 535.727V615.902H1242.42V484.652H1312.83L1370.45 554.184Z" fill="#FF0000"/>
</svg>
