<svg width="1929" height="622" viewBox="0 0 1929 622" fill="none" xmlns="http://www.w3.org/2000/svg">
<path d="M142.5 88V308H225.5C232.167 308 238.167 306 243.5 302L344.5 222C353.167 215.333 357.5 206.833 357.5 196.5V88H462.5V224C462.5 236.667 459.833 248.667 454.5 260C449.5 271.333 442 281.167 432 289.5L270 424C258.667 433.333 245.667 438 231 438H17.5V88H142.5ZM496.88 199H521.88V170.5H496.88V88H931.88V170.5H626.88V199H931.88V281.5H626.88V292.5C626.88 296.833 628.38 300.5 631.38 303.5C634.714 306.5 638.714 308 643.38 308H931.88V438H569.88C563.214 438 556.88 436.833 550.88 434.5C545.214 432.167 540.214 429 535.88 425C531.547 420.667 528.047 415.667 525.38 410C523.047 404.333 521.88 398.333 521.88 392V281.5H496.88V199ZM966.495 308H1002C1009 308 1015 306.667 1020 304C1025.33 301 1028.83 296.5 1030.5 290.5L1053 170.5H966.495V88H1069L1073.5 63.5H1178.5L1174.5 88H1431.5V235.5C1431.5 248.833 1427.16 259.833 1418.5 268.5C1409.83 277.167 1398.83 281.5 1385.5 281.5H1246L1249.5 291.5C1251.16 296.167 1254 300.167 1258 303.5C1262.33 306.5 1266.5 308 1270.5 308H1426.5V438H1243.5C1237.16 438 1230.5 436.667 1223.5 434C1216.5 431.333 1209.83 427.833 1203.5 423.5C1197.5 418.833 1192.16 413.667 1187.5 408C1182.83 402 1179.33 395.667 1177 389L1141.5 281.5H1141L1123 385.5C1120.33 400.5 1114 413 1104 423C1094 433 1081.83 438 1067.5 438H966.495V308ZM1311 199C1315.33 199 1319 197.5 1322 194.5C1325 191.5 1326.5 187.833 1326.5 183.5V170.5H1160L1155 199H1311ZM1465.9 389.5V88H1910.4L1910.9 392C1910.9 405.667 1906.56 416.833 1897.9 425.5C1889.23 433.833 1878.23 438 1864.9 438H1514.4C1507.73 438 1501.4 436.833 1495.4 434.5C1489.73 431.833 1484.56 428.333 1479.9 424C1475.56 419.333 1472.06 414.167 1469.4 408.5C1467.06 402.5 1465.9 396.167 1465.9 389.5ZM1586.9 308L1789.9 307.5C1794.23 307.5 1797.9 306 1800.9 303C1803.9 300 1805.4 296.333 1805.4 292V171H1570.9V291.5C1570.9 296.167 1572.4 300.167 1575.4 303.5C1578.73 306.5 1582.56 308 1586.9 308Z" fill="white"/>
<path d="M678.266 506.469L663.812 537.484H692.641L678.266 506.469ZM597.562 581.078L653.891 476.078H702.562L758.891 581.078H712.797L704.516 563.109H651.938L643.656 581.078H597.562ZM863.916 528.578C863.916 517.953 857.9 509.359 847.275 509.359H802.431V547.797H847.275C857.9 547.797 863.916 539.125 863.916 528.578ZM761.494 476.078H854.931C883.759 475.688 905.166 499.906 904.931 528.578C905.166 557.094 883.759 581.469 854.931 581.078H761.494V476.078ZM916.519 580.922V475.922H967.769L1008.71 528.422L1049.72 475.922H1100.89V580.922H1059.96V524.906L1018.94 580.922H998.472L957.456 524.906V580.922H916.519ZM1124.2 475.922H1165.14V580.922H1124.2V475.922ZM1288.68 531.547V475.922H1329.69V580.922H1283.6L1227.19 516.781V580.922H1186.26V475.922H1242.58L1288.68 531.547Z" fill="#FF0000"/>
</svg>
