<svg width="72" height="71" viewBox="0 0 72 71" fill="none" xmlns="http://www.w3.org/2000/svg">
<path d="M36.0009 70.9999C55.34 70.9999 71.0175 55.3225 71.0175 35.9834C71.0175 16.6442 55.34 0.966797 36.0009 0.966797C16.6618 0.966797 0.984375 16.6442 0.984375 35.9834C0.984375 55.3225 16.6618 70.9999 36.0009 70.9999Z" fill="#FFC9C8"/>
<mask id="mask0_1072_1917" style="mask-type:luminance" maskUnits="userSpaceOnUse" x="0" y="0" width="72" height="71">
<path d="M36.0009 70.9999C55.34 70.9999 71.0175 55.3225 71.0175 35.9834C71.0175 16.6442 55.34 0.966797 36.0009 0.966797C16.6618 0.966797 0.984375 16.6442 0.984375 35.9834C0.984375 55.3225 16.6618 70.9999 36.0009 70.9999Z" fill="white"/>
</mask>
<g mask="url(#mask0_1072_1917)">
<path d="M69.839 64.8312C60.8118 71.6603 47.999 75.4621 36.6754 75.2657C25.4936 75.0639 14.3827 70.433 5.64449 63.4293C5.5354 63.3475 5.43176 63.2657 5.32812 63.1784C5.92267 60.2766 7.32995 57.593 9.27722 55.3675C11.5681 52.7439 14.6063 50.7584 17.9554 49.7875C19.4499 49.3566 20.9445 48.9203 22.439 48.4839C24.2009 47.9712 25.9627 47.4639 27.719 46.9512C29.5354 49.1821 32.4809 50.5621 35.3554 50.6875C38.2299 50.813 41.1372 49.6621 43.139 47.5948C44.7372 47.9384 46.3572 48.2439 47.9772 48.5439C49.9572 48.9093 51.9372 49.2748 53.89 49.6893C58.6736 50.7039 63.0045 53.393 66.0209 57.1294C67.5699 59.0439 68.77 61.2366 69.5063 63.6203C69.6318 64.019 69.7409 64.4221 69.839 64.8312Z" fill="#B478FF"/>
<path d="M69.2172 63.7176C48.19 67.5958 26.3391 67.5521 5.35543 63.5267C5.24634 63.4448 5.1427 63.363 5.03906 63.2758C5.63361 60.3739 7.04088 57.6903 8.98815 55.4648C27.5118 59.3321 46.7827 58.9067 65.7318 57.2267C67.2803 59.1412 68.4803 61.3339 69.2172 63.7176Z" fill="#A03CFF"/>
<path d="M47.9757 48.5439C44.6266 52.8257 41.272 57.173 37.9339 61.4221C32.7684 57.113 27.603 52.7984 22.4375 48.4839C24.1993 47.9712 25.9611 47.4639 27.7175 46.9512C29.5339 49.1821 32.4793 50.5621 35.3539 50.6875C38.2284 50.813 41.1357 49.6621 43.1375 47.5948C44.7357 47.9379 46.3557 48.2434 47.9757 48.5439Z" fill="#A03CFF"/>
<path d="M54.5267 50.2344C54.0145 55.1566 54.5818 60.1884 56.1767 64.8738" stroke="#060305" stroke-width="0.545455" stroke-miterlimit="10" stroke-linecap="round" stroke-linejoin="round"/>
<path d="M16.4375 50.2812C17.3626 55.6322 17.5415 61.1658 16.9644 66.586" stroke="#060305" stroke-width="0.545455" stroke-miterlimit="10" stroke-linecap="round" stroke-linejoin="round"/>
</g>
<mask id="mask1_1072_1917" style="mask-type:luminance" maskUnits="userSpaceOnUse" x="0" y="0" width="72" height="71">
<path d="M36.0009 70.9999C55.34 70.9999 71.0175 55.3225 71.0175 35.9834C71.0175 16.6442 55.34 0.966797 36.0009 0.966797C16.6618 0.966797 0.984375 16.6442 0.984375 35.9834C0.984375 55.3225 16.6618 70.9999 36.0009 70.9999Z" fill="white"/>
</mask>
<g mask="url(#mask1_1072_1917)">
<path d="M21.0534 30.8188C20.0912 30.7152 19.2654 29.8594 19.1962 28.8939C19.1269 27.9285 19.8229 26.9636 20.7605 26.7241C20.3182 25.8306 20.4311 24.599 21.2405 24.0165C20.4474 23.9428 19.7945 23.1497 19.8747 22.3572C19.9549 21.5646 20.7529 20.9183 21.5449 21.005C20.4218 19.8317 20.0771 17.9194 20.9073 16.523C21.7374 15.1266 23.5451 14.3952 25.1127 14.8212C24.8989 13.7723 25.4002 12.5505 26.352 12.0606C27.3038 11.5708 28.5692 11.7912 29.2985 12.5745C29.3896 11.2386 30.3038 10.0577 31.5709 9.62464C32.838 9.19101 34.3467 9.5881 35.2369 10.5885C35.2222 8.81573 36.9496 7.40409 38.7229 7.39264C40.4962 7.38118 42.1189 8.98536 42.1271 10.7586C42.3071 9.95736 43.2753 9.43809 44.0422 9.73209C44.8091 10.0261 45.1832 11.0586 44.7818 11.7754C46.1334 10.9894 47.8391 11.2474 49.0134 12.2799C50.1878 13.3125 50.6029 15.1196 49.9963 16.5606C50.3787 16.283 51.0589 16.3697 51.3889 16.7079C51.7189 17.0461 51.8307 17.5512 51.792 18.0219C51.7533 18.4926 51.582 18.9415 51.4129 19.3823C51.9589 19.0621 52.7476 19.2688 53.0656 19.8165C53.3836 20.3641 53.1731 21.1517 52.6238 21.467C54.4134 22.3425 55.0843 24.9786 54.5242 26.8905C53.964 28.8023 52.1983 30.2308 50.2522 30.6574L21.0534 30.8188Z" fill="#060305"/>
<path d="M27.1797 11.1162C28.0851 11.3109 28.9055 11.8738 29.4128 12.6483C28.911 11.6207 28.9268 10.3563 29.4542 9.3418" stroke="#060305" stroke-width="0.545455" stroke-miterlimit="10" stroke-linecap="round" stroke-linejoin="round"/>
</g>
<mask id="mask2_1072_1917" style="mask-type:luminance" maskUnits="userSpaceOnUse" x="0" y="0" width="72" height="71">
<path d="M36.0009 70.9999C55.34 70.9999 71.0175 55.3225 71.0175 35.9834C71.0175 16.6442 55.34 0.966797 36.0009 0.966797C16.6618 0.966797 0.984375 16.6442 0.984375 35.9834C0.984375 55.3225 16.6618 70.9999 36.0009 70.9999Z" fill="white"/>
</mask>
<g mask="url(#mask2_1072_1917)">
<path d="M43.6834 47.9579C43.7161 47.1555 43.6686 46.3292 43.7014 45.5273C45.4245 44.983 46.9518 43.837 47.9565 42.3348C48.9612 40.8326 49.6468 38.8804 49.4919 37.0799C51.7021 35.803 53.1028 33.2393 52.9834 30.6893C52.9332 29.6219 52.6114 28.5255 51.8663 27.7597C51.1212 26.9939 49.9741 26.4937 49.0157 26.9677C48.6836 24.7188 48.4288 22.4093 48.0967 20.1604C46.5263 19.4186 45.2401 18.5803 43.6697 17.8379C43.5465 19.1006 42.5341 20.2253 41.291 20.4801C40.0479 20.7348 38.6745 20.0993 38.0641 18.9866C37.9436 19.8452 37.115 20.5439 36.2483 20.5183C35.3816 20.4921 34.553 20.0519 34.4843 19.1873C34.2159 20.383 33.2619 21.3992 32.0859 21.7433C30.9099 22.0875 29.4214 21.7711 28.5508 20.9088C28.325 23.701 28.0992 26.4932 27.8734 29.2853C27.3607 28.5184 26.9668 27.793 26.4541 27.0261C24.167 26.7026 21.7403 27.9293 20.6445 29.9628C19.5487 31.9963 19.8585 34.6979 21.3863 36.4303C22.9141 38.1626 25.5557 38.8079 27.7103 37.975C27.6127 41.2477 27.1747 44.5902 27.077 47.8624C30.2728 50.3813 33.8112 52.9575 37.007 55.4764C39.0841 53.0263 41.6063 50.4086 43.6834 47.9579Z" fill="#C14F4F"/>
<path d="M43.8036 37.6795C44.0296 37.6795 44.2127 37.4964 44.2127 37.2704C44.2127 37.0445 44.0296 36.8613 43.8036 36.8613C43.5777 36.8613 43.3945 37.0445 43.3945 37.2704C43.3945 37.4964 43.5777 37.6795 43.8036 37.6795Z" fill="#B52A41"/>
<path d="M46.9482 37.9041C47.1741 37.9041 47.3572 37.721 47.3572 37.495C47.3572 37.2691 47.1741 37.0859 46.9482 37.0859C46.7222 37.0859 46.5391 37.2691 46.5391 37.495C46.5391 37.721 46.7222 37.9041 46.9482 37.9041Z" fill="#B52A41"/>
<path d="M43.0341 35.8514C43.26 35.8514 43.4432 35.6682 43.4432 35.4423C43.4432 35.2164 43.26 35.0332 43.0341 35.0332C42.8082 35.0332 42.625 35.2164 42.625 35.4423C42.625 35.6682 42.8082 35.8514 43.0341 35.8514Z" fill="#B52A41"/>
<path d="M45.8271 36.3963C46.053 36.3963 46.2362 36.2132 46.2362 35.9872C46.2362 35.7613 46.053 35.5781 45.8271 35.5781C45.6011 35.5781 45.418 35.7613 45.418 35.9872C45.418 36.2132 45.6011 36.3963 45.8271 36.3963Z" fill="#B52A41"/>
<path d="M48.1357 35.1776C48.3616 35.1776 48.5447 34.9944 48.5447 34.7685C48.5447 34.5425 48.3616 34.3594 48.1357 34.3594C47.9097 34.3594 47.7266 34.5425 47.7266 34.7685C47.7266 34.9944 47.9097 35.1776 48.1357 35.1776Z" fill="#B52A41"/>
<path d="M29.0458 36.0135C29.2717 36.0135 29.4549 35.8303 29.4549 35.6044C29.4549 35.3785 29.2717 35.1953 29.0458 35.1953C28.8199 35.1953 28.6367 35.3785 28.6367 35.6044C28.6367 35.8303 28.8199 36.0135 29.0458 36.0135Z" fill="#B52A41"/>
<path d="M35.7528 36.1756C35.9788 36.1756 36.1619 35.9924 36.1619 35.7665C36.1619 35.5406 35.9788 35.3574 35.7528 35.3574C35.5269 35.3574 35.3438 35.5406 35.3438 35.7665C35.3438 35.9924 35.5269 36.1756 35.7528 36.1756Z" fill="#B52A41"/>
<path d="M30.8739 37.1697C31.0999 37.1697 31.283 36.9866 31.283 36.7607C31.283 36.5347 31.0999 36.3516 30.8739 36.3516C30.648 36.3516 30.4648 36.5347 30.4648 36.7607C30.4648 36.9866 30.648 37.1697 30.8739 37.1697Z" fill="#B52A41"/>
<path d="M33.2489 38.035C33.4749 38.035 33.658 37.8518 33.658 37.6259C33.658 37.4 33.4749 37.2168 33.2489 37.2168C33.023 37.2168 32.8398 37.4 32.8398 37.6259C32.8398 37.8518 33.023 38.035 33.2489 38.035Z" fill="#B52A41"/>
<path d="M32.8974 35.9822C33.1233 35.9822 33.3065 35.7991 33.3065 35.5732C33.3065 35.3472 33.1233 35.1641 32.8974 35.1641C32.6714 35.1641 32.4883 35.3472 32.4883 35.5732C32.4883 35.7991 32.6714 35.9822 32.8974 35.9822Z" fill="#B52A41"/>
<path d="M32.7916 34.4816C35.0431 34.4816 36.8683 32.6564 36.8683 30.4049C36.8683 28.1533 35.0431 26.3281 32.7916 26.3281C30.5401 26.3281 28.7148 28.1533 28.7148 30.4049C28.7148 32.6564 30.5401 34.4816 32.7916 34.4816Z" stroke="#060305" stroke-width="0.545455" stroke-miterlimit="10" stroke-linecap="round" stroke-linejoin="round"/>
<path d="M44.8502 34.4816C47.1017 34.4816 48.9269 32.6564 48.9269 30.4049C48.9269 28.1533 47.1017 26.3281 44.8502 26.3281C42.5986 26.3281 40.7734 28.1533 40.7734 30.4049C40.7734 32.6564 42.5986 34.4816 44.8502 34.4816Z" stroke="#060305" stroke-width="0.545455" stroke-miterlimit="10" stroke-linecap="round" stroke-linejoin="round"/>
<path d="M36.7383 29.275C37.2505 28.6685 38.0452 28.3112 38.8388 28.3308C39.6325 28.3505 40.4086 28.747 40.8897 29.3787" stroke="#060305" stroke-width="0.545455" stroke-miterlimit="10" stroke-linecap="round" stroke-linejoin="round"/>
<path d="M32.7049 32.1227C33.1568 32.1227 33.5231 31.7564 33.5231 31.3045C33.5231 30.8526 33.1568 30.4863 32.7049 30.4863C32.253 30.4863 31.8867 30.8526 31.8867 31.3045C31.8867 31.7564 32.253 32.1227 32.7049 32.1227Z" fill="#060305"/>
<path d="M43.9315 32.1227C44.3833 32.1227 44.7496 31.7564 44.7496 31.3045C44.7496 30.8526 44.3833 30.4863 43.9315 30.4863C43.4796 30.4863 43.1133 30.8526 43.1133 31.3045C43.1133 31.7564 43.4796 32.1227 43.9315 32.1227Z" fill="#060305"/>
<path d="M42.6641 28.4102C43.659 28.4172 44.6533 28.4243 45.6482 28.4314" stroke="#060305" stroke-width="0.545455" stroke-miterlimit="10" stroke-linecap="round" stroke-linejoin="round"/>
<path d="M34.2388 28.2796C33.677 27.8907 32.9745 27.7096 32.2943 27.7778C31.6141 27.8459 30.9617 28.1629 30.4883 28.6554" stroke="#060305" stroke-width="0.545455" stroke-miterlimit="10" stroke-linecap="round" stroke-linejoin="round"/>
<path d="M38.8698 30.2441C39.0804 32.235 39.2915 34.2254 39.502 36.2163C39.052 36.2725 38.5404 36.2474 38.0898 36.3036" stroke="#060305" stroke-width="0.545455" stroke-miterlimit="10" stroke-linecap="round" stroke-linejoin="round"/>
<path d="M36.3125 37.6582C36.4085 38.1191 36.7647 38.5168 37.212 38.6635C37.6598 38.8097 38.1818 38.6989 38.5314 38.3837" stroke="#060305" stroke-width="0.545455" stroke-miterlimit="10" stroke-linecap="round" stroke-linejoin="round"/>
<path d="M49.0586 26.8281C49.2091 30.325 49.3592 33.8225 49.5097 37.3194" stroke="#060305" stroke-width="0.545455" stroke-miterlimit="10" stroke-linecap="round" stroke-linejoin="round"/>
<path d="M49.3672 31.3972C50.0403 30.867 50.7134 30.3368 51.387 29.8066" stroke="#060305" stroke-width="0.545455" stroke-miterlimit="10" stroke-linecap="round" stroke-linejoin="round"/>
<path d="M22.8711 29.3984C24.1245 30.3104 25.3775 31.2224 26.6309 32.1339" stroke="#060305" stroke-width="0.545455" stroke-miterlimit="10" stroke-linecap="round" stroke-linejoin="round"/>
<path d="M23.1249 36.0817C22.2522 35.9011 21.2906 36.4853 21.0484 37.3428C20.8062 38.2002 21.32 39.2011 22.1578 39.5044C22.9956 39.8077 24.0309 39.3664 24.3931 38.5526" stroke="#060305" stroke-width="0.545455" stroke-miterlimit="10" stroke-linecap="round" stroke-linejoin="round"/>
<path d="M37.0039 45.9347C39.2157 46.646 41.6714 46.5718 43.8357 45.7285" stroke="#060305" stroke-width="0.545455" stroke-miterlimit="10" stroke-linecap="round" stroke-linejoin="round"/>
<path d="M43.6222 17.5059C43.8409 18.4375 43.6266 19.4613 43.0517 20.2266C42.4773 20.9918 41.5533 21.4833 40.5977 21.5329" stroke="#060305" stroke-width="0.545455" stroke-miterlimit="10" stroke-linecap="round" stroke-linejoin="round"/>
</g>
</svg>
