<svg width="71" height="71" viewBox="0 0 71 71" fill="none" xmlns="http://www.w3.org/2000/svg">
<path d="M35.0165 70.0331C54.3557 70.0331 70.0331 54.3557 70.0331 35.0166C70.0331 15.6775 54.3557 0 35.0165 0C15.6774 0 0 15.6775 0 35.0166C0 54.3557 15.6774 70.0331 35.0165 70.0331Z" fill="#B4D2FE"/>
<mask id="mask0_1072_1916" style="mask-type:luminance" maskUnits="userSpaceOnUse" x="0" y="0" width="71" height="71">
<path d="M35.0165 70.0331C54.3557 70.0331 70.0331 54.3557 70.0331 35.0166C70.0331 15.6775 54.3557 0 35.0165 0C15.6774 0 0 15.6775 0 35.0166C0 54.3557 15.6774 70.0331 35.0165 70.0331Z" fill="white"/>
</mask>
<g mask="url(#mask0_1072_1916)">
<path d="M24.1094 14.4664C24.555 14.6224 25.0006 14.7784 25.4463 14.9339C25.2908 14.4223 25.1348 13.9101 24.9794 13.3984" stroke="#C14F4F" stroke-width="0.545455" stroke-miterlimit="10" stroke-linecap="round" stroke-linejoin="round"/>
<path d="M21.4984 26.012C20.8193 20.7516 23.6546 15.2207 28.3804 12.5862C33.1067 9.95161 39.4416 10.37 43.7589 13.6023C45.0058 14.5356 46.0951 15.6871 46.8446 17.0333C48.8426 20.6223 48.2011 24.9991 47.5056 29.0245L21.4984 26.012Z" fill="#C14F4F"/>
</g>
<mask id="mask1_1072_1916" style="mask-type:luminance" maskUnits="userSpaceOnUse" x="0" y="0" width="71" height="71">
<path d="M35.0165 70.0331C54.3557 70.0331 70.0331 54.3557 70.0331 35.0166C70.0331 15.6775 54.3557 0 35.0165 0C15.6774 0 0 15.6775 0 35.0166C0 54.3557 15.6774 70.0331 35.0165 70.0331Z" fill="white"/>
</mask>
<g mask="url(#mask1_1072_1916)">
<path d="M44.5808 50.1834L45.4862 49.0118L42.5021 44.1027L39.819 46.5365C35.607 45.2684 32.4259 45.3474 28.8521 46.1984L24.8871 43.6211L21.4219 47.664L22.9044 49.0511C24.1884 56.0356 25.4724 63.0207 26.7564 70.0058C33.2697 71.9231 40.2559 72.0518 46.4681 69.3115C45.8986 62.8964 45.1791 56.5794 44.5808 50.1834Z" fill="white"/>
<path d="M35.4584 50.4922L31.9141 55.7493L32.9319 56.9596C34.2159 58.4864 36.5979 58.3811 37.7422 56.7469L38.8446 55.1716L35.4584 50.4922Z" fill="#060305"/>
<path d="M34.4335 55.0754L32.0117 71.6315L39.5199 71.0539L36.2504 54.8828L34.4335 55.0754Z" fill="#060305"/>
<path d="M24.3125 50.5059C26.82 52.811 28.7558 54.5455 31.2632 56.8506C31.4558 56.4655 31.915 55.7493 31.915 55.7493" stroke="#060305" stroke-width="0.545455" stroke-miterlimit="10" stroke-linecap="round" stroke-linejoin="round"/>
<path d="M38.8477 55.172C39.086 55.5903 39.6866 56.4451 39.6866 56.4451C39.6866 56.4451 42.5333 53.0365 44.2438 50.834" stroke="#060305" stroke-width="0.545455" stroke-miterlimit="10" stroke-linecap="round" stroke-linejoin="round"/>
</g>
<mask id="mask2_1072_1916" style="mask-type:luminance" maskUnits="userSpaceOnUse" x="0" y="0" width="71" height="71">
<path d="M35.0165 70.0331C54.3557 70.0331 70.0331 54.3557 70.0331 35.0166C70.0331 15.6775 54.3557 0 35.0165 0C15.6774 0 0 15.6775 0 35.0166C0 54.3557 15.6774 70.0331 35.0165 70.0331Z" fill="white"/>
</mask>
<g mask="url(#mask2_1072_1916)">
<path d="M70.2575 62.0985C67.407 54.0503 59.6839 48.0885 51.2037 47.0898C51.2222 46.5258 51.2408 45.9612 51.2593 45.3972C48.6019 45.1125 46.4582 45.0601 43.8008 44.7754C43.9661 53.1181 44.1319 61.4609 44.2971 69.8036C53.295 70.3949 62.9391 67.3659 70.2575 62.0985Z" fill="#FE5E04"/>
<path d="M51.256 46.9434C51.2538 50.7135 51.2522 54.4837 51.25 58.2534C52.054 58.051 52.6753 57.9457 53.4793 57.7434C53.1356 61.3685 52.8095 65.1206 52.4658 68.7457" stroke="#060305" stroke-width="0.545455" stroke-miterlimit="10" stroke-linecap="round" stroke-linejoin="round"/>
</g>
<mask id="mask3_1072_1916" style="mask-type:luminance" maskUnits="userSpaceOnUse" x="0" y="0" width="71" height="71">
<path d="M35.0165 70.0331C54.3557 70.0331 70.0331 54.3557 70.0331 35.0166C70.0331 15.6775 54.3557 0 35.0165 0C15.6774 0 0 15.6775 0 35.0166C0 54.3557 15.6774 70.0331 35.0165 70.0331Z" fill="white"/>
</mask>
<g mask="url(#mask3_1072_1916)">
<path d="M29.1531 70.3938C27.1076 61.7582 25.0616 53.1225 23.0161 44.4863C20.5212 45.2385 17.926 45.6034 15.4311 46.3556C15.5952 46.8149 15.6449 47.1841 15.809 47.6434C9.00123 50.0816 3.44632 56.08 2.18359 63.1998C10.349 67.4734 19.9507 69.8887 29.1531 70.3938Z" fill="#FE5E04"/>
<path d="M15.7601 47.4766C16.6257 50.9217 17.4908 54.3673 18.3564 57.8129C17.4439 57.6422 16.5532 57.5053 15.6406 57.3351C16.7386 60.6215 17.631 64.0104 18.729 67.2967" stroke="#060305" stroke-width="0.545455" stroke-miterlimit="10" stroke-linecap="round" stroke-linejoin="round"/>
</g>
<mask id="mask4_1072_1916" style="mask-type:luminance" maskUnits="userSpaceOnUse" x="0" y="0" width="71" height="71">
<path d="M35.0165 70.0331C54.3557 70.0331 70.0331 54.3557 70.0331 35.0166C70.0331 15.6775 54.3557 0 35.0165 0C15.6774 0 0 15.6775 0 35.0166C0 54.3557 15.6774 70.0331 35.0165 70.0331Z" fill="white"/>
</mask>
<g mask="url(#mask4_1072_1916)">
<path d="M50.4197 26.3538C49.7532 25.6949 48.7866 25.3479 47.8621 25.4036C47.4928 22.6119 46.8246 19.8585 45.869 17.207C40.1248 17.3778 34.3702 17.4574 28.6266 17.6281C27.9115 20.597 27.1964 23.5665 26.4808 26.5359C25.6877 25.9474 24.7871 25.259 23.9935 24.6705C21.9639 24.9787 20.1453 26.3472 19.3528 28.1625C18.5597 29.9783 18.8199 32.1792 20.0161 33.779C21.2122 35.3794 23.3041 36.3247 25.3539 36.191C25.3921 39.1425 25.3042 42.2074 25.3424 45.1588C28.745 46.8901 32.0521 48.7599 35.4546 50.4912C37.8061 48.5968 40.0932 47.2207 42.3001 45.1605C42.2417 44.326 42.2319 43.5978 42.1735 42.7632C45.2062 41.5016 47.4382 38.5954 47.8741 35.3401C47.8839 35.267 47.8904 35.1934 47.8997 35.1203C48.4446 34.7401 48.9672 34.3305 49.4428 33.8663C50.4508 32.8834 51.2559 31.6458 51.5139 30.2614C51.7713 28.877 51.4212 27.3432 50.4197 26.3538Z" fill="#FF9A7D"/>
<path d="M34.0652 30.9245C34.2785 29.9538 33.2352 28.8997 31.7349 28.5701C30.2346 28.2405 28.8455 28.7601 28.6323 29.7308C28.419 30.7014 29.4623 31.7555 30.9626 32.0851C32.4628 32.4148 33.8519 31.8951 34.0652 30.9245Z" fill="#C14F4F"/>
<path d="M44.8736 32.2515C46.3691 31.9006 47.3974 30.8318 47.1704 29.8643C46.9434 28.8967 45.5471 28.3967 44.0516 28.7476C42.5561 29.0984 41.5278 30.1672 41.7547 31.1348C41.9817 32.1023 43.3781 32.6023 44.8736 32.2515Z" fill="#C14F4F"/>
<path d="M47.9805 25.4258C48.0181 28.7945 48.0557 32.1638 48.0934 35.5325" stroke="#060305" stroke-width="0.545455" stroke-miterlimit="10" stroke-linecap="round" stroke-linejoin="round"/>
<path d="M48.0742 29.2739C48.6197 28.7928 49.1651 28.3112 49.7106 27.8301" stroke="#060305" stroke-width="0.545455" stroke-miterlimit="10" stroke-linecap="round" stroke-linejoin="round"/>
<path d="M21.7383 27.5039C22.749 28.3886 23.7597 29.2734 24.7705 30.1581" stroke="#060305" stroke-width="0.545455" stroke-miterlimit="10" stroke-linecap="round" stroke-linejoin="round"/>
<path d="M25.1635 36.3992C25.0986 35.8859 25.0337 35.3726 24.9688 34.8594" stroke="#060305" stroke-width="0.545455" stroke-miterlimit="10" stroke-linecap="round" stroke-linejoin="round"/>
<path d="M33.5273 43.1867C36.3784 44.3278 39.7439 44.0998 42.415 42.584" stroke="#060305" stroke-width="0.545455" stroke-miterlimit="10" stroke-linecap="round" stroke-linejoin="round"/>
<path d="M37.5279 35.179C36.2477 34.8457 34.9675 34.5124 33.6874 34.1797C33.5177 34.903 33.587 35.7539 34.1303 36.2611C34.673 36.7684 35.4934 36.9577 36.2041 36.7395C36.9137 36.5213 37.3632 35.9039 37.5279 35.179Z" fill="white"/>
<path d="M29.2266 23.4156C29.9706 22.6394 31.0555 22.203 32.1295 22.2472C33.2035 22.2914 34.2486 22.8161 34.926 23.6507" stroke="#060305" stroke-width="0.545455" stroke-miterlimit="10" stroke-linecap="round" stroke-linejoin="round"/>
<path d="M41.2383 23.5936C41.7859 22.8289 42.7023 22.3418 43.6426 22.3156C44.583 22.2894 45.525 22.7252 46.1141 23.4588" stroke="#060305" stroke-width="0.545455" stroke-miterlimit="10" stroke-linecap="round" stroke-linejoin="round"/>
<path d="M37.9963 28.2148C38.2554 29.8261 38.5145 31.4379 38.7742 33.0492C38.0263 33.0966 37.2791 33.1441 36.5312 33.1916" stroke="#060305" stroke-width="0.545455" stroke-miterlimit="10" stroke-linecap="round" stroke-linejoin="round"/>
<path d="M30.9805 27.6112C31.3754 27.2692 31.9508 27.1498 32.4494 27.3058C32.9479 27.4618 33.3526 27.8889 33.4819 28.3945" stroke="#060305" stroke-width="0.545455" stroke-miterlimit="10" stroke-linecap="round" stroke-linejoin="round"/>
<path d="M42.2188 28.443C42.2155 27.9532 42.5275 27.4753 42.978 27.2822C43.428 27.0892 43.9899 27.1917 44.3422 27.5321" stroke="#060305" stroke-width="0.545455" stroke-miterlimit="10" stroke-linecap="round" stroke-linejoin="round"/>
</g>
</svg>
