<svg width="341" height="63" viewBox="0 0 341 63" fill="none" xmlns="http://www.w3.org/2000/svg">
<path d="M3.37581 3.62457C0.177402 6.88694 -0.718151 8.67804 0.561211 9.18979C0.881051 9.25376 5.67866 13.4117 11.1799 18.3372C16.6812 23.2628 21.4788 27.4207 21.7986 27.4847C22.5662 27.8045 27.6837 22.687 27.3638 21.9194C26.98 20.832 8.17341 0.426163 7.40579 0.298227C7.02198 0.234259 5.16691 1.76949 3.37581 3.62457Z" fill="black"/>
<path d="M45.0163 10.661C39.7709 16.4821 35.3571 21.5356 35.2291 21.9194C34.9733 22.687 39.515 27.6125 40.4745 27.6125C40.9223 27.6125 56.3386 14.1153 61.3921 9.31768L62.9273 7.78245L59.1532 3.94437C57.0423 1.83342 55.1872 0.106282 54.9953 0.106282C54.7394 0.106282 50.2616 4.83992 45.0163 10.661Z" fill="black"/>
<path d="M186.192 1.51379C182.482 3.36886 180.947 6.75917 180.499 14.1795C179.86 26.1415 182.738 31.195 191.886 33.9456C198.41 35.8646 201.801 37.6557 202.696 39.5108C203.08 40.4064 203.4 43.4129 203.4 46.2275C203.4 50.8332 203.208 51.4728 201.801 52.8801C200.521 54.1595 199.626 54.4793 196.811 54.4793C191.566 54.4793 190.414 53.2639 190.095 47.5068L189.839 42.9011L185.233 43.093L180.691 43.2849L180.755 49.17C180.883 56.0785 182.099 59.213 185.489 61.196C187.472 62.2834 188.879 62.4753 196.683 62.4753C206.726 62.4753 208.965 61.7717 211.204 57.8696C212.867 55.119 213.827 45.9716 213.059 40.0226C212.036 31.8346 209.733 29.4678 199.562 26.3334C196.172 25.3099 192.845 23.8386 192.269 23.199C189.839 20.5123 189.583 12.3884 191.822 9.63773C193.869 7.14297 200.713 7.52678 201.801 10.2134C202.057 10.8531 202.44 12.9001 202.696 14.8191L203.08 18.3374L207.494 18.5293L211.844 18.7212L211.588 12.3884C211.332 5.03203 210.436 3.17695 206.406 1.32188C202.312 -0.533192 190.095 -0.405256 186.192 1.51379Z" fill="black"/>
<path d="M228.545 0.810048C225.474 1.7056 222.724 4.84004 221.572 8.74209C220.741 11.6846 220.613 15.5867 220.805 33.1779L220.997 54.1594L222.596 57.038C224.963 61.2599 227.649 62.4113 236.349 62.6672C250.55 63.1789 253.556 60.6202 254.388 47.3788L254.772 41.6856H249.526H244.345L244.281 45.3318C244.281 51.025 243.193 53.3918 240.443 54.0954C237.053 54.927 233.662 54.0954 232.319 52.0485C231.359 50.5772 231.231 48.3383 231.231 31.3868C231.231 13.0279 231.295 12.2603 232.575 10.5332C233.726 8.99796 234.43 8.74209 237.372 8.55018C239.483 8.42225 241.274 8.67812 241.978 9.18986C243.321 10.1494 244.281 13.8595 244.345 17.8895V20.6401L249.334 20.4482L254.26 20.2563L254.068 14.4992C253.876 7.52669 252.277 3.68861 248.823 1.7056C246.968 0.618144 245.304 0.42624 238.588 0.298304C234.174 0.234336 229.696 0.42624 228.545 0.810048Z" fill="black"/>
<path d="M83.7812 31.4506V62.1553H89.2185H94.6558V48.722V35.2887H101.053H107.449V48.722V62.1553H112.887H118.324V31.4506V0.745926H112.887H107.449V13.2197V25.6935H101.053H94.6558V13.2197V0.745926H89.2185H83.7812V31.4506Z" fill="black"/>
<path d="M127.922 31.4506V62.1553H133.039H138.157V31.4506V0.745926H133.039H127.922V31.4506Z" fill="black"/>
<path d="M143.914 4.90385V9.06178H149.351H154.789V35.6085V62.2192L160.098 62.0273L165.343 61.8354L165.535 35.4806L165.663 9.12575L170.973 8.93384L176.218 8.74194L176.41 4.71195L176.602 0.74593H160.226H143.914V4.90385Z" fill="black"/>
<path d="M268.647 1.0018C268.647 1.1937 267.368 8.16622 265.769 16.546C264.169 24.9259 261.994 36.3761 260.907 42.0053C259.883 47.6345 258.604 54.3512 258.092 56.9739C257.581 59.5326 257.133 61.7715 257.133 61.8994C257.133 62.0913 259.5 62.1553 262.442 62.0273L267.688 61.8354L268.647 55.4386L269.607 49.0418L276.707 48.8499L283.807 48.658L284.255 51.4086C284.511 52.9439 284.959 55.9504 285.343 58.1253L286.046 62.1553H291.42C295.514 62.1553 296.793 61.9634 296.793 61.2597C296.793 60.8119 296.217 57.5496 295.514 54.0953C294.874 50.641 292.827 40.1503 291.036 30.8109C289.245 21.4716 287.198 10.9168 286.43 7.27067L285.087 0.745926H276.899C272.357 0.745926 268.647 0.873863 268.647 1.0018ZM279.969 24.542C281.441 33.0498 282.464 40.2782 282.336 40.5341C281.952 41.1098 271.59 41.2377 271.078 40.726C270.886 40.5341 271.398 36.696 272.165 32.2182C272.997 27.7405 274.084 21.3436 274.724 18.0173C276.195 9.44558 276.323 9.06178 276.835 9.06178C277.091 9.06178 278.498 16.0343 279.969 24.542Z" fill="black"/>
<path d="M302.555 31.4506V62.2192L307.032 62.0273L311.574 61.8354L311.51 35.9923C311.51 21.7275 311.638 10.2772 311.83 10.4691C312.086 10.661 313.493 15.5865 315.028 21.3436C322.833 50.769 325.711 61.2597 326.159 61.7075C326.415 61.9634 329.869 62.0913 333.835 62.0273L340.999 61.8354V31.4506L340.936 1.06577L336.394 0.873866L331.788 0.681962L332.172 26.3971C332.428 40.7899 332.364 51.8564 332.044 51.5366C331.532 51.0248 329.293 42.8369 322.641 17.6975C321.809 14.4991 320.466 9.50955 319.698 6.50306L318.227 1.06577L310.423 0.873866L302.555 0.681962V31.4506Z" fill="black"/>
<path d="M10.8579 44.6282C5.03677 49.8096 0.239165 54.3514 0.111229 54.7352C0.0472609 55.119 1.64646 57.102 3.69344 59.149L7.46756 62.8591L16.3591 53.072C21.2207 47.6987 25.8264 42.6452 26.4661 41.8136L27.7454 40.3424L25.2507 37.8476C23.8434 36.4403 22.4361 35.2889 22.0523 35.2889C21.6685 35.2889 16.615 39.5108 10.8579 44.6282Z" fill="black"/>
<path d="M37.5387 37.7196C36.2593 39.063 35.1719 40.3423 35.1719 40.6622C35.1719 40.918 39.1379 45.5237 43.9995 50.8331C48.7971 56.1424 53.2748 61.132 53.9145 61.7716C55.002 63.051 55.0659 62.987 58.8401 59.2769C60.951 57.1659 62.6781 55.3109 62.6781 55.055C62.6781 54.4793 41.6326 35.6727 40.7371 35.4168C40.2893 35.3528 38.882 36.3763 37.5387 37.7196Z" fill="black"/>
</svg>
