<svg width="1894" height="375" viewBox="0 0 1894 375" fill="none" xmlns="http://www.w3.org/2000/svg">
<path d="M125.5 25V245H208.5C215.167 245 221.167 243 226.5 239L327.5 159C336.167 152.333 340.5 143.833 340.5 133.5V25H445.5V161C445.5 173.667 442.833 185.667 437.5 197C432.5 208.333 425 218.167 415 226.5L253 361C241.667 370.333 228.667 375 214 375H0.5V25H125.5ZM479.88 136H504.88V107.5H479.88V25H914.88V107.5H609.88V136H914.88V218.5H609.88V229.5C609.88 233.833 611.38 237.5 614.38 240.5C617.714 243.5 621.714 245 626.38 245H914.88V375H552.88C546.214 375 539.88 373.833 533.88 371.5C528.214 369.167 523.214 366 518.88 362C514.547 357.667 511.047 352.667 508.38 347C506.047 341.333 504.88 335.333 504.88 329V218.5H479.88V136ZM949.495 245H984.995C991.995 245 997.995 243.667 1003 241C1008.33 238 1011.83 233.5 1013.5 227.5L1036 107.5H949.495V25H1052L1056.5 0.499994H1161.5L1157.5 25H1414.5V172.5C1414.5 185.833 1410.16 196.833 1401.5 205.5C1392.83 214.167 1381.83 218.5 1368.5 218.5H1229L1232.5 228.5C1234.16 233.167 1237 237.167 1241 240.5C1245.33 243.5 1249.5 245 1253.5 245H1409.5V375H1226.5C1220.16 375 1213.5 373.667 1206.5 371C1199.5 368.333 1192.83 364.833 1186.5 360.5C1180.5 355.833 1175.16 350.667 1170.5 345C1165.83 339 1162.33 332.667 1160 326L1124.5 218.5H1124L1106 322.5C1103.33 337.5 1097 350 1087 360C1077 370 1064.83 375 1050.5 375H949.495V245ZM1294 136C1298.33 136 1302 134.5 1305 131.5C1308 128.5 1309.5 124.833 1309.5 120.5V107.5H1143L1138 136H1294ZM1448.9 326.5V25H1893.4L1893.9 329C1893.9 342.667 1889.56 353.833 1880.9 362.5C1872.23 370.833 1861.23 375 1847.9 375H1497.4C1490.73 375 1484.4 373.833 1478.4 371.5C1472.73 368.833 1467.56 365.333 1462.9 361C1458.56 356.333 1455.06 351.167 1452.4 345.5C1450.06 339.5 1448.9 333.167 1448.9 326.5ZM1569.9 245L1772.9 244.5C1777.23 244.5 1780.9 243 1783.9 240C1786.9 237 1788.4 233.333 1788.4 229V108H1553.9V228.5C1553.9 233.167 1555.4 237.167 1558.4 240.5C1561.73 243.5 1565.56 245 1569.9 245Z" fill="white"/>
</svg>
