<svg width="117" height="50" viewBox="0 0 117 50" fill="none" xmlns="http://www.w3.org/2000/svg">
<path d="M17.125 15.5V26.5H21.275C21.6083 26.5 21.9083 26.4 22.175 26.2L27.225 22.2C27.6583 21.8667 27.875 21.4417 27.875 20.925V15.5H33.125V22.3C33.125 22.9333 32.9917 23.5333 32.725 24.1C32.475 24.6667 32.1 25.1583 31.6 25.575L23.5 32.3C22.9333 32.7667 22.2833 33 21.55 33H10.875V15.5H17.125ZM34.874 21.05H36.124V19.625H34.874V15.5H56.624V19.625H41.374V21.05H56.624V25.175H41.374V25.725C41.374 25.9417 41.449 26.125 41.599 26.275C41.7657 26.425 41.9657 26.5 42.199 26.5H56.624V33H38.524C38.1907 33 37.874 32.9417 37.574 32.825C37.2907 32.7083 37.0407 32.55 36.824 32.35C36.6074 32.1333 36.4324 31.8833 36.299 31.6C36.1824 31.3167 36.124 31.0167 36.124 30.7V25.175H34.874V21.05ZM58.3848 26.5H60.1598C60.5098 26.5 60.8098 26.4333 61.0598 26.3C61.3264 26.15 61.5014 25.925 61.5848 25.625L62.7098 19.625H58.3848V15.5H63.5098L63.7348 14.275H68.9848L68.7848 15.5H81.6348V22.875C81.6348 23.5417 81.4181 24.0917 80.9848 24.525C80.5514 24.9583 80.0014 25.175 79.3348 25.175H72.3598L72.5348 25.675C72.6181 25.9083 72.7598 26.1083 72.9598 26.275C73.1764 26.425 73.3848 26.5 73.5848 26.5H81.3848V33H72.2348C71.9181 33 71.5848 32.9333 71.2348 32.8C70.8848 32.6667 70.5514 32.4917 70.2348 32.275C69.9348 32.0417 69.6681 31.7833 69.4348 31.5C69.2014 31.2 69.0264 30.8833 68.9098 30.55L67.1348 25.175H67.1098L66.2098 30.375C66.0764 31.125 65.7598 31.75 65.2598 32.25C64.7598 32.75 64.1514 33 63.4348 33H58.3848V26.5ZM75.6098 21.05C75.8264 21.05 76.0098 20.975 76.1598 20.825C76.3098 20.675 76.3848 20.4917 76.3848 20.275V19.625H68.0598L67.8098 21.05H75.6098ZM83.3848 30.575V15.5H105.61L105.635 30.7C105.635 31.3833 105.418 31.9417 104.985 32.375C104.551 32.7917 104.001 33 103.335 33H85.8098C85.4764 33 85.1598 32.9417 84.8598 32.825C84.5764 32.6917 84.3181 32.5167 84.0848 32.3C83.8681 32.0667 83.6931 31.8083 83.5598 31.525C83.4431 31.225 83.3848 30.9083 83.3848 30.575ZM89.4348 26.5L99.5848 26.475C99.8014 26.475 99.9848 26.4 100.135 26.25C100.285 26.1 100.36 25.9167 100.36 25.7V19.65H88.6348V25.675C88.6348 25.9083 88.7098 26.1083 88.8598 26.275C89.0264 26.425 89.2181 26.5 89.4348 26.5Z" fill="#F0F8FF"/>
</svg>
