<svg width="69" height="24" viewBox="0 0 69 24" fill="none" xmlns="http://www.w3.org/2000/svg">
<path d="M0 8.66602V17.3242L2.0659 17.3096L4.1245 17.2877L4.1464 14.3943L4.161 11.5009L5.7159 11.4498C6.6576 11.4206 7.4241 11.3621 7.665 11.3037C8.5994 11.0552 9.0739 10.858 9.709 10.4269C10.1251 10.1492 10.9938 9.27246 11.0595 9.06788C11.0814 8.98751 11.1398 8.92175 11.1763 8.92175C11.2128 8.92175 11.242 8.87791 11.242 8.81946C11.242 8.76101 11.2858 8.66602 11.3369 8.61488C11.3807 8.56373 11.4756 8.40299 11.5413 8.26417C11.9939 7.27779 12.0742 6.90516 12.0742 5.67036C12.0669 4.62553 12.0596 4.54516 11.8333 3.89488C11.4537 2.7916 11.1544 2.31668 10.3222 1.49835C9.6579 0.83346 8.7454 0.351231 7.7745 0.14665C7.1832 0.0224392 6.7744 0.00782619 3.5624 0.00782619H0V8.66602ZM6.0298 3.66838C6.8912 3.82182 7.4241 4.17983 7.7234 4.82281C8.1322 5.69228 7.8986 6.74441 7.1759 7.27048C6.6503 7.65773 6.2634 7.75271 5.1319 7.75271H4.161V5.67036V3.58801H4.8764C5.2706 3.58801 5.7889 3.62454 6.0298 3.66838Z" fill="#F0F8FF"/>
<path d="M39.2138 8.64352L39.2357 17.2871H41.2797H43.3237L43.3456 14.3937L43.3602 11.5004L44.9151 11.4492C46.6817 11.3981 47.3679 11.2666 48.2512 10.8209C49.1053 10.3898 50.0981 9.47647 50.4485 8.79696C50.5069 8.68736 50.5653 8.57777 50.5872 8.55585C50.6091 8.53393 50.7113 8.32204 50.8208 8.08092C51.4705 6.66346 51.4778 4.80031 50.8281 3.3317C50.6529 2.92254 50.412 2.51338 50.1492 2.16266C49.8353 1.74619 48.7987 0.810962 48.6527 0.810962C48.6308 0.810962 48.4921 0.73059 48.3388 0.642912C48.1928 0.547928 48.003 0.452943 47.9227 0.423717C47.8424 0.401798 47.5504 0.306813 47.2657 0.219135C46.7693 0.0583926 46.6379 0.0510861 42.9733 0.0291666L39.1992 -5.94072e-05L39.2138 8.64352ZM45.2509 3.6678C45.5137 3.71895 45.7984 3.79932 45.8787 3.85046C45.959 3.90892 46.0612 3.95275 46.1123 3.95275C46.251 3.95275 46.5576 4.23771 46.8204 4.61034C47.0394 4.92452 47.0467 4.96836 47.0467 5.66978C47.0467 6.33467 47.0321 6.42966 46.8423 6.74384C46.7328 6.9338 46.4919 7.18953 46.3167 7.31374C45.8057 7.66445 45.4188 7.75213 44.3311 7.75213H43.3602V5.66978V3.58743H44.0683C44.4552 3.58743 44.9881 3.62396 45.2509 3.6678Z" fill="#F0F8FF"/>
<path d="M64.6201 8.60642L64.642 17.2135L66.6349 17.2354L68.6205 17.25V8.62834V0.00667239H66.613H64.6055L64.6201 8.60642Z" fill="#F0F8FF"/>
<path d="M15.989 5.48855C15.8868 5.51777 15.6605 5.58353 15.478 5.63468C15.0692 5.75158 14.2078 6.14613 14.1786 6.23381C14.164 6.26304 14.1202 6.29226 14.0764 6.29226C13.8136 6.29226 12.339 7.77548 12.339 8.03851C12.339 8.08235 12.3098 8.11889 12.266 8.11889C12.2295 8.11889 12.193 8.16272 12.193 8.22118C12.193 8.27963 12.1711 8.33808 12.1419 8.35269C12.0543 8.38923 11.7112 9.1491 11.6455 9.43405C11.6163 9.57288 11.5725 9.71901 11.5433 9.76285C11.4265 9.96012 11.3243 10.7273 11.3243 11.5164C11.317 13.2627 11.8353 14.6363 12.9522 15.8419C13.4486 16.3752 14.1056 16.8575 14.7115 17.1351C14.9524 17.2447 15.2006 17.3616 15.2663 17.3981C15.332 17.4347 15.77 17.515 16.2445 17.5881C17.0475 17.705 17.1424 17.705 17.8578 17.5881C18.4126 17.4931 18.7557 17.3908 19.1426 17.1936C19.4346 17.0474 19.6901 16.9086 19.712 16.8867C19.7339 16.8575 19.858 16.7771 19.9894 16.704C20.1135 16.6236 20.223 16.536 20.223 16.5067C20.223 16.4775 20.2595 16.4483 20.296 16.4483C20.3398 16.4483 20.369 16.6456 20.369 16.8867V17.3251L22.1429 17.3105L23.9095 17.2885L23.9314 11.531L23.946 5.78081H22.1648H20.3763L20.3544 6.2192L20.3325 6.65759L20.1281 6.46762C19.9018 6.25573 19.1499 5.81734 18.8944 5.74427C18.7995 5.72236 18.6608 5.67121 18.5805 5.64198C18.1279 5.45932 17.8286 5.41548 17.0402 5.42279C16.5657 5.42279 16.0912 5.45201 15.989 5.48855ZM18.5221 9.11257C19.0185 9.28062 19.7047 9.83591 19.712 10.0697C19.712 10.1209 19.7339 10.1647 19.7704 10.1647C19.7996 10.1647 19.8726 10.2743 19.931 10.3985C20.0113 10.5739 20.0405 10.8954 20.0405 11.5529C20.0405 12.4151 20.0259 12.4882 19.8434 12.8023C19.3324 13.6645 18.5294 14.0883 17.5293 14.0152C16.8942 13.9714 16.5219 13.8106 16.062 13.3649C15.7116 13.0289 15.5656 12.7512 15.4342 12.2105C15.1057 10.8515 15.7116 9.55827 16.8723 9.14179C17.3614 8.96644 18.0549 8.95183 18.5221 9.11257Z" fill="#F0F8FF"/>
<path d="M55.2253 5.51684C54.7289 5.64836 54.0354 5.9187 53.7653 6.08674C53.6485 6.15981 53.4879 6.24018 53.4222 6.2621C53.3492 6.29133 53.2908 6.33517 53.2908 6.36439C53.2908 6.40092 53.2324 6.44476 53.1594 6.46668C52.9623 6.53244 52.0644 7.44575 51.7578 7.89876C51.6118 8.11795 51.4001 8.48328 51.2979 8.70978C51.1154 9.09702 51.057 9.26507 50.8015 10.0907C50.6701 10.5145 50.6628 12.4872 50.7942 12.9183C50.838 13.0937 50.9183 13.3713 50.9694 13.5394C51.2322 14.5038 52.0644 15.7167 52.9404 16.4254C53.2908 16.7104 54.05 17.1561 54.3493 17.2584C54.5099 17.3168 54.6559 17.3753 54.6778 17.3972C54.7289 17.4483 54.7727 17.4557 55.7144 17.5945C56.4663 17.7041 56.5685 17.7041 57.2182 17.5872C57.8314 17.4776 58.1161 17.3826 58.7658 17.083C58.8607 17.0319 59.1089 16.8711 59.3133 16.7177L59.6783 16.44L59.7148 16.8638L59.7513 17.2876L61.5252 17.3095L63.2918 17.3241V11.552V5.77987H61.5033H59.7148V6.23287C59.7148 6.4886 59.6856 6.65665 59.6564 6.62012C59.4593 6.34247 58.6198 5.86024 57.8533 5.5899C57.3788 5.42185 55.7582 5.37801 55.2253 5.51684ZM57.9409 9.15547C58.4884 9.36736 59.0213 9.8569 59.2622 10.383C59.4228 10.7264 59.452 10.8871 59.452 11.5155C59.452 12.1584 59.4228 12.2973 59.2476 12.6626C59.014 13.1594 58.6052 13.5759 58.1307 13.8243C57.8387 13.9778 57.6927 13.9997 57.0576 13.9997C56.3714 13.9997 56.2984 13.9851 55.9918 13.7878C55.4735 13.459 55.1888 13.1594 54.9625 12.6772C54.7727 12.2753 54.7508 12.1584 54.7508 11.5082C54.7508 10.8652 54.7727 10.741 54.9625 10.3464C55.4954 9.22123 56.7729 8.71708 57.9409 9.15547Z" fill="#F0F8FF"/>
<path d="M24.622 5.80203C24.6001 5.83126 24.622 5.89702 24.6585 5.94816C24.695 5.99931 24.8337 6.23311 24.9651 6.47423C25.0965 6.71534 25.2863 7.05875 25.3885 7.24141C25.4907 7.42407 25.7024 7.7967 25.8703 8.08166C26.0309 8.3593 26.2134 8.6881 26.2791 8.81231C26.593 9.38952 26.885 9.91559 26.9361 9.98135C26.9653 10.0179 27.104 10.2663 27.25 10.5293C27.3887 10.7924 27.6223 11.2161 27.7756 11.4792C28.1552 12.1368 29.3305 14.2191 29.5422 14.621C29.6444 14.8036 29.7612 14.9936 29.7977 15.0447C29.8488 15.1032 29.8123 15.2566 29.6663 15.5562C29.5495 15.7827 29.44 15.9873 29.4181 16.0092C29.3962 16.0311 29.3159 16.1773 29.2502 16.338C29.1772 16.4987 28.4034 18.0696 27.5274 19.8305L25.936 23.0234H27.9946H30.0605L32.0753 18.9756C33.1849 16.7472 34.0901 14.8913 34.0901 14.8475C34.0901 14.8109 34.112 14.7671 34.1485 14.7525C34.2069 14.7306 34.6741 13.8026 34.6741 13.715C34.6741 13.6784 34.7325 13.5688 34.8128 13.4665C34.8858 13.3569 34.9734 13.1889 35.0026 13.0866C35.0318 12.9843 35.0829 12.8893 35.1048 12.8674C35.1413 12.8382 35.4333 12.2537 36.1268 10.8216C36.229 10.6024 36.3385 10.4051 36.3604 10.3832C36.3896 10.3613 36.4334 10.2663 36.4626 10.164C36.4918 10.0617 36.5721 9.90097 36.6451 9.79868C36.7181 9.69639 36.7984 9.53565 36.8276 9.43336C36.8568 9.33107 36.9444 9.16302 37.0174 9.06073C37.0904 8.95844 37.1707 8.79039 37.1926 8.68079C37.2218 8.57119 37.2729 8.48351 37.3094 8.48351C37.3459 8.48351 37.3751 8.44698 37.3751 8.40314C37.3751 8.28624 38.492 6.04315 38.5577 6.01392C38.5942 5.99931 38.6161 5.94085 38.6161 5.8824C38.6161 5.80203 38.2584 5.78011 36.6013 5.7655C35.4917 5.75089 34.5646 5.75819 34.5354 5.78011C34.5062 5.80203 34.4259 5.94816 34.3529 6.1089C34.2872 6.26965 34.1923 6.46692 34.1485 6.54729C34.0171 6.78841 33.9733 6.87609 33.5353 7.7894C33.309 8.27163 32.9659 8.99497 32.7761 9.39683C32.579 9.79868 32.3235 10.3467 32.1921 10.6243C32.068 10.8947 31.9366 11.0992 31.9001 11.0773C31.8636 11.0554 31.7906 10.9458 31.7322 10.8362C31.6811 10.7266 31.5205 10.4417 31.3891 10.2005C31.2577 9.95943 31.0022 9.4845 30.8197 9.1411C30.1919 7.93553 29.8707 7.35101 29.6955 7.02222C29.5933 6.83955 29.4035 6.49615 29.2794 6.25503L29.0458 5.81664L26.8485 5.78011C25.644 5.75819 24.6439 5.77281 24.622 5.80203Z" fill="#F0F8FF"/>
</svg>
