<svg width="158" height="145" viewBox="0 0 158 145" fill="none" xmlns="http://www.w3.org/2000/svg">
<path d="M136.163 13.2495L3.77344 51.8223L7.28005 63.8577L139.669 25.2849L136.163 13.2495Z" fill="#1E1E1E"/>
<path d="M19.591 107.106L0.0778436 40.1328C-0.0668213 39.6362 -0.00830853 39.1026 0.240501 38.6492C0.48931 38.1958 0.908037 37.8598 1.40457 37.7151L130.584 0.0774308C131.081 -0.0667481 131.614 -0.0080371 132.068 0.240683C132.521 0.489404 132.857 0.907809 133.002 1.40406L150.289 60.7372L149.754 60.8931L132.467 1.55994C132.363 1.20562 132.123 0.906932 131.799 0.729301C131.476 0.551671 131.095 0.509584 130.74 0.612267L1.56042 38.25C1.20575 38.3533 0.906662 38.5933 0.728941 38.9172C0.55122 39.241 0.509425 39.6222 0.612752 39.9769L20.1259 106.95L19.591 107.106Z" fill="#3F3D56"/>
<path d="M121.697 61.0119C121.305 61.0115 120.924 60.8842 120.61 60.649C120.297 60.4138 120.068 60.0835 119.958 59.7073L116.685 48.4743C116.551 48.0133 116.606 47.518 116.837 47.0971C117.068 46.6763 117.456 46.3642 117.917 46.2294L129.15 42.9566C129.611 42.8228 130.106 42.8774 130.527 43.1084C130.948 43.3394 131.26 43.7279 131.395 44.1886L134.668 55.4216C134.802 55.8827 134.747 56.378 134.516 56.7988C134.285 57.2197 133.897 57.5317 133.436 57.6666L122.203 60.9394C122.039 60.9874 121.868 61.0118 121.697 61.0119Z" fill="#FF0000"/>
<path d="M19.2917 40.3389C19.258 40.2235 19.218 40.1101 19.1719 39.9991C18.8578 39.2368 18.2731 38.6174 17.5301 38.2601C16.7871 37.9027 15.9383 37.8325 15.1467 38.063C14.3551 38.2934 13.6766 38.8083 13.2415 39.5086C12.8065 40.209 12.6456 41.0454 12.7898 41.8572C12.8101 41.9756 12.837 42.0928 12.8706 42.2082C13.074 42.9025 13.4969 43.5123 14.0759 43.9462C14.655 44.3801 15.359 44.6148 16.0825 44.615C16.3984 44.6157 16.7128 44.5707 17.0158 44.4813C17.8662 44.2328 18.5834 43.6572 19.0101 42.8806C19.4367 42.1041 19.538 41.19 19.2917 40.3389ZM16.8597 43.9465C16.1505 44.1523 15.3885 44.0685 14.741 43.7134C14.0935 43.3583 13.6132 42.7609 13.4055 42.0522C13.3728 41.9367 13.3468 41.8195 13.3274 41.7012C13.2229 41.0323 13.3656 40.3484 13.7288 39.7771C14.092 39.2059 14.6508 38.7865 15.3008 38.5974C15.9508 38.4082 16.6474 38.4623 17.2604 38.7495C17.8734 39.0367 18.3608 39.5374 18.6314 40.1579C18.6819 40.2668 18.7238 40.3795 18.7568 40.4949C18.9624 41.2042 18.8781 41.9661 18.5224 42.6132C18.1667 43.2604 17.5687 43.7399 16.8597 43.9465Z" fill="#FF0000"/>
<path d="M11.0919 42.7257C10.9136 42.1135 10.9308 41.4609 11.1409 40.8588C11.351 40.2568 11.7437 39.7352 12.2642 39.3669C11.7766 39.3431 11.2903 39.4363 10.8459 39.6385C10.4015 39.8407 10.0118 40.1462 9.7094 40.5295C9.40697 40.9128 9.20051 41.3629 9.10723 41.8421C9.01394 42.3214 9.03654 42.816 9.17311 43.2848C9.30969 43.7535 9.5563 44.1829 9.89241 44.537C10.2285 44.8912 10.6444 45.1599 11.1054 45.3208C11.5664 45.4817 12.0591 45.5301 12.5426 45.4619C13.0261 45.3938 13.4863 45.2112 13.8849 44.9292C13.248 44.8981 12.6366 44.6691 12.136 44.2741C11.6354 43.8792 11.2704 43.3379 11.0919 42.7257Z" fill="#FF0000"/>
<path d="M97.6905 56.5331C97.6313 56.3199 97.5305 56.1205 97.3941 55.9463C97.2577 55.772 97.0882 55.6264 96.8955 55.5178C96.7027 55.4091 96.4904 55.3395 96.2708 55.3129C96.0511 55.2864 95.8283 55.3034 95.6152 55.363L77.1207 60.5361L75.1289 61.0933H87.6368L89.6286 60.5361L96.5233 58.6084C96.9531 58.4877 97.3174 58.2013 97.5363 57.8122C97.7551 57.4231 97.8106 56.963 97.6905 56.5331Z" fill="#CCCCCC"/>
<path d="M84.6035 52.669C84.483 52.239 84.1966 51.8745 83.8074 51.6557C83.4182 51.4368 82.958 51.3814 82.528 51.5018L54.7766 59.2628C54.3888 59.3727 54.053 59.6175 53.8298 59.9531C53.6066 60.2887 53.5106 60.693 53.5592 61.0931H60.7436L62.7381 60.5359L83.4362 54.7472C83.8664 54.626 84.2309 54.3391 84.4497 53.9495C84.6686 53.5599 84.7239 53.0994 84.6035 52.669Z" fill="#CCCCCC"/>
<path d="M156.048 60.5352H21.4969C20.9799 60.5357 20.4842 60.7414 20.1187 61.1069C19.7531 61.4725 19.5475 61.9682 19.5469 62.4852V142.157C19.5474 142.674 19.7531 143.17 20.1186 143.536C20.4842 143.901 20.9799 144.107 21.4969 144.107H156.048C156.565 144.107 157.061 143.901 157.426 143.536C157.792 143.17 157.998 142.674 157.998 142.157V62.4852C157.998 61.9682 157.792 61.4725 157.426 61.107C157.061 60.7414 156.565 60.5358 156.048 60.5352ZM157.441 142.157C157.441 142.527 157.294 142.881 157.033 143.142C156.772 143.403 156.418 143.55 156.048 143.55H21.4969C21.1275 143.55 20.7733 143.403 20.5121 143.142C20.2509 142.881 20.1042 142.527 20.104 142.157V62.4852C20.1042 62.1158 20.251 61.7616 20.5122 61.5004C20.7733 61.2393 21.1275 61.0925 21.4969 61.0923H156.048C156.418 61.0925 156.772 61.2393 157.033 61.5004C157.294 61.7616 157.441 62.1158 157.441 62.4852V142.157Z" fill="#3F3D56"/>
<path d="M34.589 71.4006C33.9278 71.4006 33.2815 71.2046 32.7318 70.8372C32.182 70.4699 31.7536 69.9478 31.5006 69.337C31.2475 68.7262 31.1813 68.054 31.3103 67.4056C31.4393 66.7571 31.7577 66.1615 32.2252 65.694C32.6927 65.2264 33.2884 64.9081 33.9368 64.7791C34.5853 64.6501 35.2574 64.7163 35.8683 64.9693C36.4791 65.2223 37.0012 65.6508 37.3685 66.2005C37.7358 66.7503 37.9319 67.3966 37.9319 68.0577C37.9309 68.944 37.5783 69.7937 36.9516 70.4204C36.3249 71.0471 35.4753 71.3996 34.589 71.4006ZM34.589 65.272C34.038 65.272 33.4994 65.4354 33.0413 65.7415C32.5832 66.0476 32.2261 66.4827 32.0153 66.9917C31.8045 67.5007 31.7493 68.0608 31.8568 68.6012C31.9643 69.1416 32.2296 69.638 32.6192 70.0275C33.0088 70.4171 33.5051 70.6825 34.0455 70.7899C34.5859 70.8974 35.146 70.8423 35.655 70.6314C36.1641 70.4206 36.5991 70.0635 36.9052 69.6054C37.2113 69.1473 37.3747 68.6087 37.3747 68.0577C37.3739 67.3192 37.0801 66.6111 36.5579 66.0888C36.0356 65.5666 35.3275 65.2728 34.589 65.272Z" fill="#FF0000"/>
<path d="M29.3931 68.0584C29.3932 67.4208 29.5922 66.799 29.9624 66.2798C30.3325 65.7606 30.8554 65.3697 31.4582 65.1617C30.9966 65.0024 30.5037 64.9558 30.0205 65.0257C29.5373 65.0955 29.0777 65.2798 28.6801 65.5632C28.2826 65.8466 27.9584 66.2209 27.7348 66.655C27.5112 67.089 27.3945 67.5702 27.3945 68.0585C27.3945 68.5467 27.5112 69.0279 27.7348 69.4619C27.9584 69.896 28.2826 70.2703 28.6801 70.5537C29.0777 70.8371 29.5373 71.0214 30.0205 71.0912C30.5037 71.1611 30.9966 71.1145 31.4582 70.9552C30.8554 70.7472 30.3325 70.3563 29.9624 69.8371C29.5922 69.3179 29.3932 68.6961 29.3931 68.0584Z" fill="#FF0000"/>
<path d="M48.14 107.553C47.4753 107.553 46.838 107.288 46.368 106.818C45.898 106.348 45.6336 105.711 45.6328 105.046V97.5247C45.6328 96.8598 45.897 96.2221 46.3671 95.7519C46.8373 95.2817 47.475 95.0176 48.14 95.0176C48.8049 95.0176 49.4426 95.2817 49.9128 95.7519C50.383 96.2221 50.6471 96.8598 50.6471 97.5247V105.046C50.6464 105.711 50.382 106.348 49.912 106.818C49.4419 107.288 48.8047 107.553 48.14 107.553Z" fill="#FF0000"/>
<path d="M54.8236 107.553C54.1589 107.553 53.5216 107.288 53.0516 106.818C52.5816 106.348 52.3172 105.711 52.3164 105.046V97.5247C52.3164 96.8598 52.5805 96.2221 53.0507 95.7519C53.5209 95.2817 54.1586 95.0176 54.8236 95.0176C55.4885 95.0176 56.1262 95.2817 56.5964 95.7519C57.0666 96.2221 57.3307 96.8598 57.3307 97.5247V105.046C57.33 105.711 57.0656 106.348 56.5956 106.818C56.1255 107.288 55.4883 107.553 54.8236 107.553Z" fill="#FF0000"/>
<path d="M61.5111 107.553C60.8464 107.553 60.2091 107.288 59.7391 106.818C59.2691 106.348 59.0047 105.711 59.0039 105.046V97.5247C59.0039 96.8598 59.2681 96.2221 59.7382 95.7519C60.2084 95.2817 60.8461 95.0176 61.5111 95.0176C62.176 95.0176 62.8137 95.2817 63.2839 95.7519C63.7541 96.2221 64.0182 96.8598 64.0182 97.5247V105.046C64.0175 105.711 63.7531 106.348 63.2831 106.818C62.8131 107.288 62.1758 107.553 61.5111 107.553Z" fill="#FF0000"/>
<path d="M71.8197 107.553C71.155 107.553 70.5177 107.288 70.0477 106.818C69.5777 106.348 69.3133 105.711 69.3125 105.046V97.5247C69.3125 96.8598 69.5766 96.2221 70.0468 95.7519C70.517 95.2817 71.1547 95.0176 71.8197 95.0176C72.4846 95.0176 73.1223 95.2817 73.5925 95.7519C74.0627 96.2221 74.3268 96.8598 74.3268 97.5247V105.046C74.3261 105.711 74.0617 106.348 73.5917 106.818C73.1216 107.288 72.4844 107.553 71.8197 107.553Z" fill="#FF0000"/>
<path d="M78.5033 107.553C77.8386 107.553 77.2013 107.288 76.7313 106.818C76.2613 106.348 75.9969 105.711 75.9961 105.046V97.5247C75.9961 96.8598 76.2602 96.2221 76.7304 95.7519C77.2006 95.2817 77.8383 95.0176 78.5033 95.0176C79.1682 95.0176 79.8059 95.2817 80.2761 95.7519C80.7463 96.2221 81.0104 96.8598 81.0104 97.5247V105.046C81.0097 105.711 80.7453 106.348 80.2753 106.818C79.8052 107.288 79.168 107.553 78.5033 107.553Z" fill="#FF0000"/>
<path d="M85.1908 107.553C84.5261 107.553 83.8888 107.288 83.4188 106.818C82.9488 106.348 82.6844 105.711 82.6836 105.046V97.5247C82.6836 96.8598 82.9477 96.2221 83.4179 95.7519C83.8881 95.2817 84.5258 95.0176 85.1908 95.0176C85.8557 95.0176 86.4934 95.2817 86.9636 95.7519C87.4338 96.2221 87.6979 96.8598 87.6979 97.5247V105.046C87.6972 105.711 87.4328 106.348 86.9628 106.818C86.4927 107.288 85.8555 107.553 85.1908 107.553Z" fill="#FF0000"/>
<path d="M95.4994 107.553C94.8346 107.553 94.1974 107.288 93.7274 106.818C93.2574 106.348 92.9929 105.711 92.9922 105.046V97.5247C92.9922 96.8598 93.2563 96.2221 93.7265 95.7519C94.1967 95.2817 94.8344 95.0176 95.4994 95.0176C96.1643 95.0176 96.802 95.2817 97.2722 95.7519C97.7424 96.2221 98.0065 96.8598 98.0065 97.5247V105.046C98.0058 105.711 97.7414 106.348 97.2714 106.818C96.8013 107.288 96.1641 107.553 95.4994 107.553Z" fill="#FF0000"/>
<path d="M102.183 107.553C101.518 107.553 100.881 107.288 100.411 106.818C99.9409 106.348 99.6765 105.711 99.6758 105.046V97.5247C99.6758 96.8598 99.9399 96.2221 100.41 95.7519C100.88 95.2817 101.518 95.0176 102.183 95.0176C102.848 95.0176 103.486 95.2817 103.956 95.7519C104.426 96.2221 104.69 96.8598 104.69 97.5247V105.046C104.689 105.711 104.425 106.348 103.955 106.818C103.485 107.288 102.848 107.553 102.183 107.553Z" fill="#FF0000"/>
<path d="M108.87 107.553C108.206 107.553 107.568 107.288 107.098 106.818C106.628 106.348 106.364 105.711 106.363 105.046V97.5247C106.363 96.8598 106.627 96.2221 107.098 95.7519C107.568 95.2817 108.206 95.0176 108.87 95.0176C109.535 95.0176 110.173 95.2817 110.643 95.7519C111.113 96.2221 111.378 96.8598 111.378 97.5247V105.046C111.377 105.711 111.112 106.348 110.642 106.818C110.172 107.288 109.535 107.553 108.87 107.553Z" fill="#FF0000"/>
<path d="M119.179 107.553C118.514 107.553 117.877 107.288 117.407 106.818C116.937 106.348 116.673 105.711 116.672 105.046V97.5247C116.672 96.8598 116.936 96.2221 117.406 95.7519C117.876 95.2817 118.514 95.0176 119.179 95.0176C119.844 95.0176 120.482 95.2817 120.952 95.7519C121.422 96.2221 121.686 96.8598 121.686 97.5247V105.046C121.685 105.711 121.421 106.348 120.951 106.818C120.481 107.288 119.844 107.553 119.179 107.553Z" fill="#FF0000"/>
<path d="M125.863 107.553C125.198 107.553 124.561 107.288 124.091 106.818C123.621 106.348 123.356 105.711 123.355 105.046V97.5247C123.355 96.8598 123.62 96.2221 124.09 95.7519C124.56 95.2817 125.198 95.0176 125.863 95.0176C126.528 95.0176 127.165 95.2817 127.635 95.7519C128.106 96.2221 128.37 96.8598 128.37 97.5247V105.046C128.369 105.711 128.105 106.348 127.635 106.818C127.165 107.288 126.527 107.553 125.863 107.553Z" fill="#FF0000"/>
<path d="M132.546 107.553C131.882 107.553 131.244 107.288 130.774 106.818C130.304 106.348 130.04 105.711 130.039 105.046V97.5247C130.039 96.8598 130.303 96.2221 130.773 95.7519C131.244 95.2817 131.881 95.0176 132.546 95.0176C133.211 95.0176 133.849 95.2817 134.319 95.7519C134.789 96.2221 135.053 96.8598 135.053 97.5247V105.046C135.053 105.711 134.788 106.348 134.318 106.818C133.848 107.288 133.211 107.553 132.546 107.553Z" fill="#FF0000"/>
<path d="M65.1379 135.457H29.0792C28.6324 135.457 28.2039 135.28 27.888 134.964C27.572 134.648 27.3945 134.219 27.3945 133.773C27.3945 133.326 27.572 132.897 27.888 132.581C28.2039 132.265 28.6324 132.088 29.0792 132.088H65.1379C65.5847 132.088 66.0132 132.265 66.3291 132.581C66.645 132.897 66.8225 133.326 66.8225 133.773C66.8225 134.219 66.645 134.648 66.3291 134.964C66.0132 135.28 65.5847 135.457 65.1379 135.457Z" fill="#E6E6E6"/>
<path d="M53.5787 128.215H40.6417C40.1949 128.215 39.7664 128.037 39.4505 127.722C39.1345 127.406 38.957 126.977 38.957 126.53C38.957 126.084 39.1345 125.655 39.4505 125.339C39.7664 125.023 40.1949 124.846 40.6417 124.846H53.5787C54.0255 124.846 54.454 125.023 54.77 125.339C55.0859 125.655 55.2634 126.084 55.2634 126.53C55.2634 126.977 55.0859 127.406 54.77 127.722C54.454 128.037 54.0255 128.215 53.5787 128.215Z" fill="#E6E6E6"/>
<path d="M157.341 77.1895H20.0039V77.7466H157.341V77.1895Z" fill="#3F3D56"/>
</svg>
