<svg width="493" height="141" viewBox="0 0 493 141" fill="none" xmlns="http://www.w3.org/2000/svg">
<path d="M134.482 24.7205C134.206 25.1783 132.462 25.6361 130.718 25.6361C127.689 25.6361 123.375 27.6504 121.906 29.6646C121.539 30.214 119.52 30.4887 117.5 30.3056C112.176 29.9393 109.239 32.6861 109.239 37.9965C109.239 42.3913 111.625 46.5114 117.959 53.1036C124.109 59.6043 125.67 63.9991 122.182 65.8302C120.713 66.6543 120.621 66.4711 120.988 64.3653C121.998 59.1465 115.94 52.8289 111.901 54.9348C109.514 56.3081 109.698 57.4984 112.452 58.2309C115.113 58.8718 116.949 61.7101 116.123 63.8159C115.664 65.0062 114.93 64.7315 112.176 62.0763C110.34 60.3367 108.137 58.5971 107.219 58.3224C106.393 58.0478 105.475 56.4913 105.108 54.9348C104.741 53.2867 102.905 50.4484 100.977 48.5257C99.1416 46.6945 97.3057 44.1309 97.0303 42.9406C96.1124 39.3698 91.5228 35.6159 87.3921 35.0666C80.1405 34.0594 76.377 38.2711 72.1545 52.2796C70.0433 59.3296 67.7485 63.175 65.729 63.175C65.2701 63.175 65.2701 61.2523 65.6372 58.9633C66.0044 56.2166 65.8208 54.3854 65.0865 53.4698C63.7096 51.8218 60.2215 51.8218 58.8446 53.3783C58.0184 54.477 57.0087 54.2939 53.2452 52.3711C50.7668 51.1809 48.6556 49.8075 48.6556 49.3497C48.6556 47.7932 45.9936 48.5257 45.4428 50.2653C44.8003 52.3711 52.7863 60.9776 56.3662 61.8932C57.6513 62.1679 58.7528 62.9919 58.7528 63.6328C58.7528 64.2737 59.5789 65.8302 60.6804 67.2036C63.4342 70.6828 69.4007 70.5913 72.7053 67.0205C75.7344 63.8159 76.4688 62.351 79.3143 53.653C81.8845 45.5958 83.7204 43.0322 86.8413 43.0322C89.9623 43.0322 90.1459 44.314 87.2085 45.5958C85.7398 46.2367 83.904 48.251 83.0778 50.0822C81.6092 53.1036 81.6092 53.7445 82.7107 55.7588C83.445 57.0406 84.8219 58.2309 85.648 58.414C87.1167 58.6887 87.2085 58.3224 86.7496 55.6672C86.2906 53.2867 86.566 52.188 88.0347 50.9062C90.5131 48.6172 91.3392 49.5328 90.0541 53.1952C89.5033 54.8432 89.0444 57.3153 89.0444 58.7802C89.0444 60.2452 88.0347 62.8088 86.7496 64.5484C85.4645 66.1965 84.0876 69.1263 83.8122 71.1406C83.5368 73.0633 82.2517 75.7185 81.0584 77.0004C76.5606 81.853 77.6621 90.3679 83.0778 93.9387C85.7398 95.6783 94.4601 95.312 104.466 93.0231C107.586 92.2906 110.983 91.9244 111.993 92.1991C114.746 92.9315 114.196 95.2205 111.166 95.7698C105.475 96.9601 103.915 102.545 108.872 104.376C110.707 105.109 111.075 105.933 111.166 109.137C111.534 117.744 111.442 117.652 113.369 117.652C114.563 117.652 115.297 117.011 115.297 115.821C115.389 114.814 116.123 112.525 116.858 110.785C117.592 109.046 117.959 106.207 117.775 104.559C117.408 102.454 117.959 100.348 119.428 97.601C121.264 94.0302 121.355 93.2978 120.254 90.7341C118.051 85.2406 110.524 83.6841 100.059 86.5224C97.3057 87.2549 93.4504 87.8958 91.6146 87.8958C87.3003 87.8958 83.6286 84.5081 86.1988 82.9517C86.6578 82.677 87.4839 83.0432 88.1264 83.7757C89.8705 85.8815 96.5714 85.5153 98.958 83.3179C100.059 82.2192 100.977 80.8458 100.977 80.1133C100.977 78.0075 99.1416 77.5497 97.3057 79.1978C95.5617 80.7543 90.8802 80.8458 90.7884 79.2893C90.7884 78.74 92.3489 77.9159 94.3683 77.3666C96.3878 76.7257 98.499 75.9017 99.2334 75.4439C99.9677 74.9861 103.18 74.5283 106.485 74.4367C126.22 73.7043 127.322 73.4296 130.351 68.3939C134.023 62.4426 132.554 58.414 123.099 47.9763C116.766 41.201 115.022 38.088 116.766 36.9893C117.225 36.7146 118.51 37.264 119.611 38.2711C124.201 42.4828 129.066 40.9263 128.332 35.5244C128.056 34.151 128.24 32.9607 128.699 32.9607C129.158 32.9607 130.902 31.9536 132.554 30.6718C134.206 29.39 136.042 28.3828 136.593 28.3828C138.062 28.3828 138.704 26.9179 138.062 25.2698C137.419 23.6218 135.308 23.3471 134.482 24.7205ZM131.82 29.2069C130.902 30.214 129.25 31.1296 128.148 31.3127C126.496 31.5874 126.22 32.1367 126.496 35.0666C126.863 39.6445 124.752 40.4685 121.264 37.1724C118.326 34.3341 116.123 34.151 114.838 36.44C113.645 38.7289 115.297 41.7504 121.906 49.3497C124.844 52.6458 127.964 56.3997 128.791 57.6815C131.177 61.1607 130.81 65.464 127.689 68.8517C125.211 71.5984 124.476 71.8731 119.152 72.0562C116.031 72.1478 111.258 72.514 108.688 72.7887C105.842 73.2465 103.272 73.0633 102.171 72.4224C100.702 71.69 99.9677 71.7815 98.6826 73.2465C97.8565 74.162 95.1027 75.4439 92.6243 75.9932C87.7593 77.1835 87.1167 78.4653 89.9623 81.0289C91.1556 82.1276 92.7161 82.4939 94.9191 82.2192C96.6632 82.0361 97.8565 82.2192 97.6729 82.5854C96.755 84.0504 90.2377 83.3179 87.9429 81.4867C85.1891 79.3809 84.4547 79.8387 84.4547 83.5926C84.4547 89.6354 89.228 91.1004 99.7841 88.3536C102.63 87.6211 107.219 86.9802 109.973 86.9802C113.92 86.9802 115.297 87.438 117.041 89.2692C118.326 90.4594 119.336 92.1991 119.336 93.1146C119.336 95.8614 116.766 98.7913 113.553 99.7069C111.35 100.348 111.075 100.531 112.635 100.622C114.93 100.714 115.756 101.721 116.123 105.109C116.399 107.581 114.93 111.701 113.737 111.701C112.635 111.701 111.809 106.94 112.819 105.933C114.379 104.376 114.012 103.461 111.625 103.461C109.239 103.461 107.036 101.355 107.586 99.7069C107.77 99.0659 109.331 98.0588 111.075 97.5094C115.022 96.2276 116.49 94.0302 114.838 92.1075C113.186 90.0932 108.229 90.2763 98.0401 92.4737C88.31 94.6711 85.3727 94.3049 82.1599 90.4594C79.2226 86.9802 79.2226 82.7685 82.1599 78.4653C83.3532 76.6341 84.8219 73.4296 85.3727 71.3237C86.0152 69.2179 87.5757 66.288 89.0444 64.9146C90.8802 62.9919 91.431 61.7101 91.1556 59.9705C90.8802 58.6887 91.1556 55.7588 91.7064 53.3783C92.3489 50.9062 92.4407 48.8004 91.9817 48.3426C90.5131 46.8776 86.2906 49.3497 84.9137 52.3711C83.445 55.7588 83.0778 54.477 84.4547 50.8146C85.0055 49.4413 86.6578 47.8848 88.5854 47.0607C90.3295 46.3283 91.7982 45.5043 91.7982 45.138C91.7982 43.5815 88.4936 41.201 86.1988 41.201C82.7107 41.201 80.4159 44.4056 77.3867 53.7445C74.4493 62.9919 72.0627 66.8374 68.4828 68.0276C66.4634 68.6685 65.4536 68.4854 63.4342 67.0205C61.4148 65.5556 61.0476 64.5484 61.1394 61.0692C61.1394 57.2237 61.0476 57.0406 59.9461 58.5971C59.2117 59.6043 58.1102 60.4283 57.3759 60.4283C55.9072 60.4283 49.0228 54.2023 49.7571 53.5614C50.4914 52.7374 55.2647 54.8432 56.458 56.4913C57.4677 57.8646 57.7431 57.8646 58.8446 56.0335C59.5789 54.9348 61.0476 54.0192 62.2409 54.0192C64.1686 54.0192 64.2603 54.3854 64.0768 58.6887C63.8932 62.4426 64.1686 63.6328 65.4536 64.4569C68.1156 66.1049 71.1448 61.6185 74.3575 51.364C77.5703 40.7432 80.6912 36.6231 85.3727 36.6231C90.2377 36.6231 95.3781 40.4685 95.4699 44.1309C95.4699 45.0465 96.755 46.8776 98.3154 48.251C101.528 51.1809 103.731 54.9348 103.731 57.4984C103.731 58.6887 104.557 59.5127 106.026 59.8789C107.311 60.2452 110.065 61.9848 112.084 63.8159C114.655 66.1965 116.031 66.8374 116.766 66.1049C118.602 64.2737 117.867 60.1536 115.297 57.9562C113.92 56.7659 113.278 55.8504 113.828 55.8504C114.379 55.8504 115.94 56.9491 117.225 58.2309C119.244 60.2452 119.52 61.0692 118.969 64.64C118.418 68.9432 118.785 69.3094 122.549 67.5698C125.119 66.4711 126.22 63.4497 125.486 60.1536C125.119 59.0549 121.998 54.8432 118.418 50.9062C111.625 43.3069 109.881 39.553 111.258 35.6159C111.993 33.5101 115.297 31.1296 117.5 31.1296C117.959 31.1296 119.611 32.2283 121.172 33.5101L124.017 35.9822L123.375 33.4185C122.549 30.214 125.67 27.5588 130.259 27.4672C133.288 27.4672 133.38 27.5588 131.82 29.2069Z" fill="black"/>
<path d="M95.1981 54.0191C94.5555 59.238 95.2899 61.5269 97.6765 61.1607C100.155 60.7945 100.706 56.949 98.6862 53.1951C96.7585 49.4412 95.8406 49.6243 95.1981 54.0191ZM98.2272 57.2237C98.2272 58.5055 97.8601 59.5126 97.3093 59.5126C96.8503 59.5126 96.3914 58.5055 96.3914 57.2237C96.3914 55.9419 96.8503 54.9347 97.3093 54.9347C97.8601 54.9347 98.2272 55.9419 98.2272 57.2237Z" fill="black"/>
<path d="M103.091 63.816C101.255 64.457 101.714 67.5699 103.642 68.6686C104.651 69.1264 107.221 69.5842 109.333 69.5842C112.362 69.5842 112.913 69.3096 112.178 68.394C110.618 66.5628 104.284 63.3583 103.091 63.816ZM107.038 67.4784C106.304 68.2109 103.733 67.0206 103.733 65.9219C103.733 65.281 104.284 65.281 105.661 65.9219C106.671 66.5628 107.313 67.2037 107.038 67.4784Z" fill="black"/>
<path d="M91.1592 67.936C90.1495 69.1262 88.7726 71.0489 88.1301 72.1477C87.1204 74.1619 87.2121 74.2535 89.2316 73.7041C93.3623 72.4223 96.8504 69.9502 96.8504 68.1191C96.8504 65.5554 93.454 65.4639 91.1592 67.936ZM93.7294 69.6756C92.5361 70.6827 91.3428 71.2321 91.0674 70.9574C90.3331 70.2249 92.9033 67.7528 94.4638 67.7528C95.5653 67.8444 95.4735 68.2106 93.7294 69.6756Z" fill="black"/>
<path d="M165.602 48.8002C165.419 49.4411 165.327 59.2379 165.419 70.4996L165.694 91.1002H167.989C170.284 91.1002 170.284 91.1002 170.559 81.2119L170.835 71.4152H174.965C178.637 71.4152 179.28 71.6898 180.656 74.2535C188.092 87.621 190.662 91.1002 193.048 91.3749C194.425 91.558 195.527 91.2833 195.527 90.734C195.527 90.1846 193.416 86.2476 190.937 82.0359C184.787 71.6898 184.695 71.4152 187.541 71.4152C193.691 71.4152 198.189 61.71 195.16 54.66C192.773 48.8918 189.469 47.61 176.893 47.61C168.999 47.61 165.97 47.8846 165.602 48.8002ZM189.285 54.66C191.396 56.5827 191.488 62.8087 189.377 65.1892C188.183 66.5626 186.439 66.8372 179.28 66.8372H170.743V59.9704V53.1035H179.188C185.705 53.1035 187.908 53.4697 189.285 54.66Z" fill="black"/>
<path d="M286.588 50.0819L286.863 52.6455L297.511 53.1033L308.251 53.5611L304.855 59.5124C302.927 62.8085 298.246 70.9572 294.39 77.641C290.535 84.3247 287.322 90.1845 287.322 90.6423C287.322 91.1916 292.83 91.5579 300.908 91.5579H314.585L315.594 89.2689C316.237 87.9871 316.696 86.7053 316.696 86.5221C316.696 86.2475 311.923 86.0644 306.14 86.0644C300.357 86.0644 295.584 85.8812 295.584 85.6981C295.584 85.515 299.163 79.289 303.478 71.7812C315.044 51.8215 316.696 48.8916 316.696 48.2507C316.696 47.8845 309.811 47.6098 301.458 47.6098H286.312L286.588 50.0819Z" fill="black"/>
<path d="M347.158 50.0824L347.434 52.646L360.744 52.9207C373.411 53.1954 374.145 53.1038 375.706 51.1811C376.532 50.0824 377.266 48.8921 377.266 48.4343C377.266 47.9766 370.382 47.6103 362.029 47.6103H346.883L347.158 50.0824Z" fill="black"/>
<path d="M407.754 69.3092L408.029 91.1001H410.324C412.619 91.1001 412.619 91.1001 412.894 81.2118L413.17 71.415H417.209H421.247L426.939 81.4864C432.263 90.6423 432.997 91.5579 435.384 91.5579C438.596 91.5579 438.596 91.4663 432.354 80.9371C429.876 76.7254 427.765 72.7884 427.765 72.3306C427.765 71.7812 428.774 71.415 429.968 71.415C431.345 71.415 433.272 70.2247 435.016 68.2105C437.403 65.4637 437.862 64.1819 437.862 60.3364C437.862 50.0819 434.007 47.6098 418.126 47.6098H407.57L407.754 69.3092ZM431.804 55.1176C433.823 57.9559 433.639 62.8085 431.436 65.0059C429.876 66.5624 428.407 66.8371 421.339 66.8371H413.078V59.9702V53.1033H421.706C429.692 53.1033 430.518 53.2864 431.804 55.1176Z" fill="black"/>
<path d="M232.429 69.4927C227.748 81.0291 223.984 90.7343 223.984 91.009C223.984 91.3752 225.086 91.5583 226.555 91.3752C228.849 91.1005 229.492 90.0018 235.183 75.9934L241.241 60.8862L243.077 65.0064C243.995 67.2953 246.841 74.1622 249.227 80.3882C253.45 91.009 253.817 91.6499 256.02 91.3752C257.305 91.1921 258.407 90.8258 258.407 90.5512C258.407 89.3609 241.884 48.6174 241.425 48.5258C241.058 48.5258 237.111 57.9564 232.429 69.4927Z" fill="black"/>
<path d="M441.253 50.3568C441.529 51.364 441.896 52.188 441.988 52.188C442.079 52.188 442.446 51.364 442.722 50.3568C442.997 49.2581 442.722 48.5257 441.988 48.5257C441.253 48.5257 440.978 49.2581 441.253 50.3568Z" fill="black"/>
<path d="M444.281 50.54C444.281 52.2796 444.465 52.3711 445.199 51.2724C446.392 49.5328 446.392 48.5257 445.199 48.5257C444.74 48.5257 444.281 49.4413 444.281 50.54Z" fill="black"/>
<path d="M446.664 49.9904C445.929 51.9131 445.929 51.9131 447.49 51.9131C448.224 51.9131 448.867 51.0891 448.867 50.1735C448.867 48.1592 447.398 47.9761 446.664 49.9904Z" fill="black"/>
<path d="M346.984 69.1263V71.4153H361.212C374.247 71.4153 375.44 71.3237 376.358 69.6757C376.817 68.6685 377.276 67.6614 377.276 67.3867C377.276 67.112 370.483 66.8374 362.13 66.8374H346.984V69.1263Z" fill="black"/>
<path d="M347.158 88.5367L347.434 91.1004L360.744 91.3751C373.411 91.6497 374.145 91.5582 375.706 89.6354C376.532 88.5367 377.266 87.3465 377.266 86.8887C377.266 86.4309 370.382 86.0647 362.029 86.0647H346.883L347.158 88.5367Z" fill="black"/>
<path d="M116.578 114.814C116.578 115.638 119.332 116.096 119.791 115.363C120.158 114.814 119.515 114.448 118.506 114.448C117.404 114.448 116.578 114.631 116.578 114.814Z" fill="black"/>
</svg>
