<svg width="334" height="114" viewBox="0 0 334 114" fill="none" xmlns="http://www.w3.org/2000/svg">
<path d="M105.606 2.27988C98.2897 4.60845 93.1151 6.16082 53.4135 18.3211C43.1535 21.4259 28.2543 25.9968 20.4032 28.4116C12.552 30.8264 5.50389 33.3275 4.61172 34.0174C2.38129 35.9147 -0.919742 43.8491 0.240081 44.6253C1.75677 45.4878 34.2318 52.8184 57.6959 57.4756C61.9784 58.4242 65.8147 59.3729 66.1716 59.6316C66.8853 60.3216 67.6883 59.8904 48.9526 70.6708C40.6555 75.5004 29.9494 81.7099 25.2209 84.4697C20.4924 87.2295 16.21 89.4718 15.5854 89.4718C14.9609 89.4718 13.5334 88.4369 12.3736 87.057C11.2138 85.7633 10.054 84.9872 9.6971 85.3321C8.71571 86.1946 1.04304 112.844 1.57834 113.361C1.75677 113.62 17.5482 104.737 36.5515 93.6977L71.0785 73.5168L76.6992 62.9089C79.8218 57.1306 82.4091 51.8698 82.4091 51.266C82.4091 50.0586 75.0933 48.2475 56.5361 44.5391C51.8968 43.6766 47.0791 42.5555 45.83 42.038C44.581 41.6068 41.28 40.8306 38.3358 40.3132C35.4809 39.7095 33.5181 39.0195 33.8749 38.6745C34.321 38.3296 39.4956 36.5185 45.384 34.7073C51.2723 32.9825 61.0862 29.964 67.2422 28.0666C73.3981 26.2555 82.766 23.3232 88.119 21.6846L97.7544 18.5799L100.699 21.3396L103.643 24.0994L109.977 11.9391C117.293 -1.94604 117.471 -1.51483 105.606 2.27988Z" fill="black"/>
<path d="M222.475 17.9761C195.71 20.046 175.101 22.1158 174.387 22.7195C173.852 23.1507 184.201 33.4137 185.093 33.4137C185.45 33.4137 186.164 32.2063 186.788 30.8264C187.413 29.3603 188.127 28.2391 188.305 28.2391C189.822 28.2391 219.977 25.5656 222.743 25.2206C224.884 24.9619 226.044 25.1343 226.044 25.738C226.044 26.3417 223.1 30.3089 219.531 34.6211C215.873 38.9333 211.502 44.3666 209.717 46.6089L206.416 50.7486L216.319 69.7221C221.672 80.0713 226.49 88.6094 226.847 88.6094C227.828 88.6094 236.75 79.2951 236.75 78.2602C236.75 77.9152 235.947 77.3978 234.966 77.139C233.806 76.8803 231.219 72.7406 226.847 64.2888L220.423 51.7835L230.862 39.192C238.802 29.619 241.211 26.1693 240.765 24.8756C240.23 23.0645 233.627 16.9412 232.468 17.1137C232.111 17.2 227.65 17.6312 222.475 17.9761Z" fill="black"/>
<path d="M320.707 25.7378C316.068 26.169 312.142 26.6865 311.874 26.9452C311.607 27.2039 312.142 28.1526 312.945 29.015C314.551 30.6537 314.372 30.9986 307.681 39.1917C303.845 43.8489 299.741 48.7647 298.492 50.2309L296.261 52.8182L287.964 44.1939C283.325 39.4505 279.578 35.0521 279.578 34.3621C279.578 33.6722 280.202 32.3785 281.005 31.5161C283.146 29.2738 281.184 28.8426 274.135 29.8775C271.013 30.3949 266.909 30.8261 265.125 30.8261C262.983 30.8261 261.734 31.2574 261.734 31.8611C261.824 32.4648 267.801 39.3642 275.117 47.1261C282.522 54.9743 288.499 61.615 288.499 61.96C288.499 62.5637 286.983 64.461 269.139 86.1943C262.626 94.1287 257.273 101.028 257.273 101.546C257.273 102.063 258.166 102.236 259.325 101.977C260.396 101.718 264.054 101.028 267.444 100.338C270.745 99.6483 274.046 98.6133 274.671 97.9234C275.295 97.3197 280.47 91.1102 286.18 84.0382C291.89 77.0525 296.886 71.3605 297.243 71.3605C297.6 71.3605 302.953 76.6213 309.019 83.0896L320.082 94.9049L326.952 87.6605C330.788 83.6933 333.911 80.1573 334 79.7261C334 79.3811 331.056 79.1224 327.398 79.1224H320.885L312.677 70.498L304.38 61.8737L307.324 58.2515C309.019 56.1817 315.443 48.2473 321.688 40.5716C328.023 32.9822 333.108 26.2553 333.108 25.7378C333.108 24.7029 332.93 24.7029 320.707 25.7378Z" fill="black"/>
<path d="M141.11 32.3786C139.148 32.7235 139.148 33.4135 140.753 35.5696C141.913 37.122 141.11 39.0193 132.724 55.0605C127.639 64.8923 123.445 73.3441 123.445 73.8616C123.445 75.069 130.493 82.5721 131.653 82.5721C132.099 82.5721 136.471 80.2436 141.378 77.3113C146.374 74.4653 150.567 72.3092 150.835 72.5679C151.103 72.7404 147.445 80.2436 142.716 89.1266C137.988 98.0097 134.33 105.427 134.508 105.685C134.776 105.858 137.809 105.513 141.289 104.909C146.374 104.047 147.98 103.443 149.229 101.632C150.121 100.424 156.366 88.6954 163.147 75.6727C169.927 62.65 177.065 49.1098 178.938 45.66C180.812 42.2103 182.329 39.0193 182.329 38.5018C182.329 37.7257 177.868 37.8981 167.429 39.1055L163.593 39.5368L165.11 41.6928C166.448 43.7627 166.359 44.1077 162.612 51.1796C160.47 55.233 158.062 59.0277 157.348 59.7177C156.099 60.7526 144.501 64.4611 142.27 64.4611C141.735 64.4611 145.125 57.0441 149.764 48.0748L158.329 31.6024L150.478 31.7749C146.106 31.9474 141.913 32.1198 141.11 32.3786Z" fill="black"/>
<path d="M194.825 36.6048C188.669 37.1222 188.045 37.4672 190.008 39.537C191.613 41.2619 191.524 41.5206 184.298 55.492C177.874 67.9973 176.714 69.6359 174.841 69.6359C173.592 69.6359 172.343 69.9809 172.075 70.4984C171.45 71.4471 181.443 82.4862 182.692 82.2275C183.406 82.055 207.137 38.0709 207.227 36.6048C207.316 36.0011 202.766 36.0011 194.825 36.6048Z" fill="black"/>
<path d="M247.02 38.243C231.853 42.7277 233.013 41.9515 230.426 50.1446L228.195 57.3028L232.478 65.6684C235.422 71.3605 237.295 73.9478 238.366 73.9478C240.596 73.9478 270.841 71.2742 272.893 70.9292C273.875 70.7568 276.283 68.6007 278.157 66.1859L281.547 61.8737L274.588 54.2843C260.046 38.5018 257.459 36.0007 255.853 36.087C254.871 36.1732 250.946 37.1219 247.02 38.243ZM259.511 54.543C262.812 58.1652 265.399 61.1838 265.22 61.4425C264.417 62.1324 240.15 63.6848 239.526 63.0811C239.08 62.6499 239.437 59.8039 240.24 56.6991L241.667 51.1795L246.574 49.6272C249.251 48.851 251.927 48.161 252.462 48.161C252.998 48.0748 256.21 51.007 259.511 54.543Z" fill="black"/>
<path d="M124.349 42.9005C122.119 43.2455 114.089 44.0217 106.506 44.5391C98.9222 45.1428 92.677 45.6603 92.5878 45.7465C91.2496 47.2127 76.1719 76.6216 76.1719 77.6565C76.1719 78.9502 85.272 89.4719 87.0564 90.1618C87.4132 90.3343 94.1937 86.7121 102.134 82.0549C115.249 74.2931 116.676 73.2581 118.639 69.5497C119.799 67.2211 120.424 65.2375 120.067 65.065C119.71 64.8063 113.465 66.5312 106.149 68.8597C98.833 71.1883 92.5878 72.8269 92.3202 72.5682C92.0525 72.3095 93.9261 68.0835 96.5134 63.1677C101.777 53.1635 100.35 53.9396 114.357 52.7322C120.334 52.2148 121.048 52.3873 123.1 54.1984C124.26 55.2333 125.42 56.0095 125.598 55.7508C126.847 54.3709 132.2 42.9005 131.576 42.9005C131.13 42.9005 130.237 42.728 129.524 42.5555C128.899 42.383 126.58 42.5555 124.349 42.9005Z" fill="black"/>
</svg>
