<?xml version="1.0" encoding="UTF-8"?>
<svg version="1.1" xmlns="http://www.w3.org/2000/svg" width="59" height="64">
<path d="M0 0 C3.63 0 7.26 0 11 0 C11 5.61 11 11.22 11 17 C17.45419114 15.92430148 21.72873788 15.12551455 26 10 C26.7678522 6.65728344 26.98670379 3.42377422 27 0 C29.97 0 32.94 0 36 0 C37.52631069 12.87188681 37.52631069 12.87188681 33.94921875 17.859375 C31.39614125 20.11364788 28.80879309 22.07689933 26 24 C25.2884375 24.73347656 24.576875 25.46695313 23.84375 26.22265625 C19.4566204 28.96461225 15.2387383 28.42504866 10.1875 28.25 C6.825625 28.1675 3.46375 28.085 0 28 C0 18.76 0 9.52 0 0 Z " fill="#FF0000" transform="translate(11,17)"/>
</svg>
