<svg width="273" height="273" viewBox="0 0 273 273" fill="none" xmlns="http://www.w3.org/2000/svg">
<path d="M29.125 99.5175C29.125 99.8815 30.1442 103.303 31.3818 107.162C33.493 113.786 33.7842 114.296 36.1138 115.17C38.2978 115.97 38.8074 116.553 39.9722 120.484C43.8306 132.86 51.9114 157.976 52.9306 160.742C53.8042 162.999 54.4594 163.8 55.4058 163.654C56.061 163.509 61.0114 157.83 66.3258 151.06C71.6402 144.217 81.6138 131.404 88.5298 122.595L101.124 106.434L99.5954 102.721L97.9938 98.9351L91.0778 99.1535L84.2346 99.3719L72.8778 114.442C66.617 122.741 61.2298 129.438 60.8658 129.293C60.5018 129.22 58.609 123.105 56.6434 115.679C54.6778 108.326 52.785 101.556 52.421 100.61C51.7658 99.0807 51.4746 99.0079 40.409 99.0079C34.221 99.0079 29.125 99.2263 29.125 99.5175Z" fill="black"/>
<path d="M106.294 99.5176C106.294 99.8816 107.677 103.303 109.352 107.162C112.336 114.005 112.482 114.223 114.957 114.442C117.432 114.66 117.578 114.806 121 122.522L124.567 130.458L118.524 137.082C101.489 156.01 95.7381 162.49 95.5197 163.145C95.3741 163.509 99.1597 163.8 104.765 163.8H114.229L123.475 153.39C128.498 147.711 132.866 142.979 133.157 142.834C133.448 142.761 135.632 147.347 138.108 153.026L142.548 163.436L152.085 163.654C160.312 163.8 161.622 163.654 161.622 162.708C161.622 162.126 158.492 154.7 154.706 146.328C150.92 137.956 147.79 130.822 147.79 130.458C147.79 130.166 153.832 123.178 161.258 115.024C168.611 106.798 174.653 99.8816 174.726 99.5176C174.726 99.2264 170.358 99.008 165.044 99.008H155.361L147.135 108.836C142.548 114.296 138.69 118.591 138.544 118.373C138.326 118.154 136.433 113.859 134.395 108.69L130.536 99.372L118.452 99.1536C111.754 99.0808 106.294 99.2264 106.294 99.5176Z" fill="black"/>
<path d="M181.208 104.25L176.622 109.418L181.135 113.495L185.722 117.572L183.465 127.764C180.189 142.834 177.568 154.19 176.476 158.631C175.966 160.815 175.675 162.854 175.894 163.218C176.476 164.091 237.337 163.946 237.337 163.072C237.337 162.635 236.609 159.359 235.735 155.792L234.206 149.24H214.987C193.293 149.24 195.186 149.895 196.86 142.688L197.734 138.684L211.711 138.466C222.194 138.32 225.689 138.029 225.689 137.374C225.689 136.937 224.888 133.734 223.942 130.312L222.267 124.124L211.566 123.906C203.412 123.76 200.864 123.469 201.155 122.814C201.301 122.377 201.883 120.047 202.393 117.718L203.339 113.568H214.186C220.083 113.568 224.961 113.35 224.961 113.131C224.961 112.913 224.451 111.02 223.942 108.982C223.359 106.87 222.486 103.813 222.049 102.066L221.248 99.0079H203.558H185.867L181.208 104.25Z" fill="black"/>
</svg>
