<svg width="800" height="600" viewBox="0 0 800 600" fill="none" xmlns="http://www.w3.org/2000/svg">
<path d="M189.597 265.52C182.477 267.68 177.837 272.08 175.197 279.12C174.077 282.08 173.277 282.88 171.517 283.2C169.597 283.52 169.117 284.08 168.637 286.8C167.677 292.4 167.837 293.6 169.597 293.6C171.757 293.6 171.757 294.16 167.997 314C166.237 323.36 164.797 331.44 164.797 331.92C164.797 332.56 166.637 332.8 170.557 332.64L176.317 332.4L178.157 323.2C179.117 318.16 180.797 309.52 181.837 304L183.757 294L189.037 293.76C192.877 293.6 194.397 293.84 194.397 294.48C194.397 295.6 192.877 304.08 189.917 319.44C187.197 333.84 186.877 332.8 193.997 332.8C199.437 332.8 199.997 332.64 199.997 331.2C199.997 330.32 200.877 325.04 201.917 319.44C203.037 313.76 204.797 304.16 205.917 298C207.117 291.84 208.237 286 208.397 284.96L208.797 283.2H197.597C187.277 283.2 186.397 283.12 186.397 281.76C186.397 279.68 188.957 277.52 192.157 276.88C194.717 276.32 194.797 276.16 195.677 270.96C196.157 268 196.317 265.44 196.157 265.2C195.597 264.64 191.997 264.8 189.597 265.52Z" fill="black"/>
<path d="M200.236 266.56C199.916 267.12 199.196 269.68 198.716 272.24L197.836 276.88L203.916 276.64L209.996 276.4L210.876 271.44L211.756 266.56L209.356 266.08C205.436 265.28 200.956 265.52 200.236 266.56Z" fill="black"/>
<path d="M336.239 266.24C335.679 266.56 334.479 270.48 333.679 274.88C332.319 281.52 324.959 321.6 323.439 330.16L323.039 332.8H328.959H334.879L337.519 318.16C340.799 300 343.599 285.2 345.599 274.88C346.479 270.56 346.959 266.72 346.719 266.32C346.239 265.44 337.599 265.36 336.239 266.24Z" fill="black"/>
<path d="M239.916 281.92C237.916 282.48 234.956 283.68 233.276 284.64C229.596 286.8 229.276 286.8 229.836 284.8C230.236 283.2 229.996 283.12 224.556 283.36L218.876 283.6L214.796 306C212.556 318.32 210.396 329.44 210.076 330.64L209.516 332.88L215.756 332.64L221.916 332.4L224.076 320.4C225.276 313.76 226.876 306.48 227.596 304.24C230.636 294.4 239.516 289.76 244.876 295.12C246.956 297.2 247.196 298 247.196 302.4C247.196 305.04 246.316 311.68 245.276 317.04C244.236 322.4 243.116 328.16 242.796 329.76L242.316 332.8H248.396C251.676 332.8 254.396 332.56 254.396 332.16C254.396 331.84 255.516 325.68 256.876 318.4C258.396 310.72 259.436 302.32 259.516 298.32C259.596 292.16 259.356 291.2 257.436 288.24C253.916 282.88 246.556 280.24 239.916 281.92Z" fill="black"/>
<path d="M291.997 281.76C282.717 283.44 273.037 290.88 269.117 299.52C260.957 317.36 269.037 334.4 285.597 334.4C290.077 334.4 297.677 332 300.957 329.6C303.837 327.52 303.997 327.6 303.997 330.4V332.88L308.877 332.64C312.317 332.48 313.997 332 314.477 331.2C314.797 330.56 316.397 322.8 317.997 314C319.597 305.2 321.357 295.6 321.997 292.64C323.917 283.84 323.997 284 318.077 284C312.717 284 311.997 284.48 311.997 288.24C311.997 289.76 311.677 289.6 309.037 287.04C303.757 282.08 298.797 280.48 291.997 281.76ZM301.037 293.92C302.477 294.48 304.477 296 305.597 297.2C307.357 299.04 307.597 300.08 307.597 305.12C307.597 310.4 307.357 311.12 304.717 314.8C298.477 323.52 287.357 325.76 281.437 319.36C277.997 315.76 277.277 311.84 278.877 306.4C280.397 301.28 284.077 297.04 289.197 294.72C293.757 292.56 297.277 292.32 301.037 293.92Z" fill="black"/>
<path d="M375.113 282.48C371.193 283.04 366.873 284.96 365.913 286.56C365.433 287.28 365.113 286.96 364.793 285.6C364.393 283.76 363.913 283.6 359.433 283.36L354.553 283.12L353.673 286.96C353.273 289.04 351.513 298 349.993 306.8C348.393 315.6 346.553 325.04 345.993 327.84L344.953 332.88L351.033 332.64L357.193 332.4L359.673 318.64C362.633 302.8 363.513 299.76 366.153 296.24C370.553 290.24 379.273 291.36 381.433 298.24C382.473 301.28 382.313 302.88 379.673 316.72C378.073 325.12 376.793 332.16 376.793 332.4C376.793 332.64 379.433 332.8 382.713 332.8H388.633L390.313 323.76C391.193 318.88 392.313 312.48 392.793 309.68C394.073 302.56 395.673 298.8 398.873 296.08C405.513 290.16 413.593 292.88 413.593 301.04C413.593 303.52 411.353 316.8 409.593 325.2C407.753 333.76 407.193 332.8 413.993 332.8C417.273 332.8 419.993 332.64 419.993 332.48C419.993 332.32 420.713 328.64 421.593 324.32C425.113 307.36 426.313 297.6 425.273 293.52C423.833 288.24 422.233 286.08 418.073 284C411.353 280.8 400.713 282.08 395.033 286.8C392.073 289.28 391.913 289.28 389.513 286.72C385.913 282.88 381.433 281.52 375.113 282.48Z" fill="black"/>
<path d="M457.598 282.56C451.198 283.52 445.038 286.8 439.518 292.32C431.998 299.92 429.038 307.76 430.558 316.16C432.878 328.96 444.238 336.08 457.918 333.2C467.998 331.12 476.318 324.72 481.038 315.6C484.318 309.2 484.958 300.4 482.638 295.12C478.318 285.52 469.118 280.88 457.598 282.56ZM465.598 294.56C472.478 298.16 473.918 306.32 469.118 314.16C464.158 322.16 453.678 325.36 447.278 320.88C438.078 314.32 442.718 298.32 455.118 293.92C459.278 292.4 461.598 292.56 465.598 294.56Z" fill="black"/>
<path d="M610.075 282.48C596.475 284.72 584.475 297.52 583.355 310.88C582.395 322.8 588.555 330.96 600.475 333.44C609.035 335.28 620.555 330.88 627.515 323.04C632.635 317.44 632.395 316.8 625.515 316.8C620.315 316.8 619.595 317.04 617.115 319.12C614.475 321.52 610.075 323.2 606.555 323.2C601.995 323.2 595.195 318.32 595.195 315.12C595.195 313.68 596.235 313.6 614.395 313.6H633.595L634.555 311.36C635.115 310.16 635.515 306.32 635.515 302.8C635.595 297.2 635.355 295.92 633.435 292.64C628.635 284.56 620.075 280.8 610.075 282.48ZM617.835 293.92C621.275 295.36 623.195 297.6 623.755 301.12L624.235 304H610.475C601.355 304 596.795 303.68 596.795 303.12C596.795 302.72 598.315 300.72 600.235 298.72C605.275 293.36 612.155 291.44 617.835 293.92Z" fill="black"/>
<path d="M558.477 283.52C551.757 285.92 546.477 293.12 546.397 299.84C546.397 306.24 549.837 309.68 559.437 312.8C561.117 313.28 563.037 314.64 563.757 315.68C564.957 317.6 564.957 317.84 563.437 319.84C561.437 322.48 558.077 323.84 556.157 322.72C555.437 322.24 554.237 320.72 553.597 319.36C552.397 316.88 552.317 316.8 546.637 316.8H540.797V320.4C540.797 327.04 544.237 331.28 551.277 333.12C561.757 335.84 573.917 328.96 576.797 318.8C579.037 310.72 576.157 306.24 566.557 302.8C563.117 301.52 559.917 300.16 559.357 299.76C556.557 297.6 561.277 292.16 565.037 293.12C566.157 293.36 567.357 294.32 567.597 295.2C568.077 296.56 568.797 296.8 573.677 296.8H579.197V294.32C579.197 290.64 576.077 285.68 572.637 283.92C569.197 282.16 562.717 282 558.477 283.52Z" fill="black"/>
<path d="M495.273 287.04C492.873 298.24 490.313 314.48 490.313 318.4C490.233 328.4 495.753 333.68 506.233 333.68C511.433 333.76 514.473 332.72 518.233 329.84L520.873 327.84L520.633 330.16C520.393 332.4 520.473 332.4 525.113 332.64C527.673 332.8 530.153 332.56 530.473 332.24C530.793 331.92 532.153 326 533.513 319.2C538.153 294.8 539.993 285.04 539.993 284.16C539.993 283.52 538.073 283.2 534.153 283.2H528.313L525.673 297.36C522.793 312.64 521.673 316.08 518.953 319.04C515.193 323.12 510.633 324.16 506.393 322C502.953 320.24 501.993 316.4 503.193 308.88C503.993 303.36 506.633 289.44 507.593 284.96C507.993 283.28 507.833 283.2 502.073 283.2H496.153L495.273 287.04Z" fill="black"/>
</svg>
