<svg width="352" height="68" viewBox="0 0 352 68" fill="none" xmlns="http://www.w3.org/2000/svg">
<path d="M87.7662 1.57599C83.6274 3.70899 82.6535 5.17161 77.1148 18.3352C70.2979 34.3022 57.1511 65.4439 56.7859 66.2971C56.5424 66.9065 57.5163 67.0894 60.3769 67.0894H64.3331L68.3502 57.4604C84.4186 19.0665 88.4357 9.98608 89.8356 8.70629C92.1485 6.69518 96.3481 6.81706 98.5393 9.011C99.574 10.1689 104.078 20.1026 111.99 38.8729L123.859 67.0894H127.694C129.763 67.0894 131.467 66.9675 131.467 66.7846C131.467 66.6018 126.476 54.7789 120.451 40.3965C114.364 26.0749 108.704 12.7285 107.912 10.7174C104.869 3.40427 101.522 0.661855 94.9482 0.235256C91.5398 -0.00851431 90.566 0.174314 87.7662 1.57599Z" fill="black"/>
<path d="M139.929 1.81977L138.164 3.58711V35.3382V67.0894H141.512H144.859V39.1167C144.859 23.4544 145.103 10.9612 145.407 10.7783C145.711 10.5955 150.702 18.6399 156.484 28.7564C162.267 38.812 167.623 47.5877 168.475 48.2581C171.883 50.9396 176.874 50.9396 180.283 48.1971C181.135 47.5268 186.552 38.812 192.334 28.7564C198.116 18.6399 203.046 10.5955 203.351 10.7783C203.655 10.9612 203.898 23.6982 203.898 39.1167V67.0894H207.246H210.593V35.3382V3.58711L208.828 1.81977C206.637 -0.374162 203.046 -0.617933 200.672 1.27129C199.82 1.94166 194.038 11.3878 187.769 22.2356C181.5 33.1443 175.961 42.4076 175.474 42.7732C173.588 44.3577 174.257 45.3938 158.25 17.543C153.502 9.25478 148.876 1.94166 148.024 1.27129C145.711 -0.617933 142.12 -0.374162 139.929 1.81977Z" fill="black"/>
<path d="M0 28.269V54.0477L1.58249 57.2167C3.28671 60.6295 5.96477 63.311 9.921 65.3831C12.4165 66.7238 13.086 66.7847 31.5281 66.9676L50.518 67.1504V63.4938V59.7763H32.8671C13.6338 59.7763 12.6599 59.6544 9.67754 56.3635C6.81688 53.1945 6.69515 51.9757 6.69515 26.5016V2.49023H3.34758H0V28.269Z" fill="black"/>
<path d="M218.507 6.14669V9.80325L246.809 9.92514L275.172 10.108L264.947 18.0915C222.889 50.8786 218.324 54.5961 217.472 56.6072C215.951 60.2638 217.594 64.4079 221.246 66.1143C223.011 66.9675 227.089 67.0894 252.53 67.0894H281.806V63.4328V59.7762L252.774 59.6544L223.68 59.4715L251.739 37.5322C267.199 25.4655 280.285 14.8615 280.833 13.9474C282.111 11.8753 282.111 7.7312 280.833 5.78104C278.641 2.49013 278.763 2.49013 247.418 2.49013H218.507V6.14669Z" fill="black"/>
<path d="M287.401 28.208C287.584 53.9258 287.584 53.9867 289.045 56.7291C290.992 60.4466 293.67 63.25 297.322 65.1392L300.366 66.7847H319.842C338.893 66.7847 339.38 66.7847 341.876 65.383C345.832 63.3109 348.51 60.6295 350.214 57.2167L351.797 54.0477V28.2689V2.49016H348.449H345.101V26.5016C345.101 51.9756 344.98 53.1945 342.119 56.3635C339.137 59.5934 338.102 59.7763 319.66 59.7763C303.105 59.7763 302.618 59.7153 300.061 58.3746C298.235 57.3995 296.957 56.1197 295.983 54.2914C294.583 51.6709 294.583 51.549 294.583 27.0501V2.49016H290.871H287.219L287.401 28.208Z" fill="black"/>
<path d="M84.6016 63.4328V67.0894H94.0356H103.47V63.4328V59.7762H94.0356H84.6016V63.4328Z" fill="black"/>
</svg>
