<svg width="105" height="35" viewBox="0 0 105 35" fill="none" xmlns="http://www.w3.org/2000/svg">
<path d="M0 13.1752V26.3379L3.14069 26.3157L6.27028 26.2824L6.30358 21.8837L6.32577 17.485L8.68961 17.4073C10.1212 17.3629 11.2865 17.274 11.6527 17.1851C13.0733 16.8075 13.7946 16.5076 14.7601 15.8522C15.3927 15.4301 16.7134 14.0972 16.8132 13.7862C16.8465 13.664 16.9353 13.564 16.9908 13.564C17.0463 13.564 17.0907 13.4974 17.0907 13.4085C17.0907 13.3196 17.1573 13.1752 17.235 13.0975C17.3015 13.0197 17.4458 12.7754 17.5457 12.5643C18.2338 11.0648 18.3558 10.4983 18.3558 8.62108C18.3447 7.03267 18.3336 6.91049 17.9896 5.9219C17.4125 4.24464 16.9575 3.52263 15.6924 2.27857C14.6824 1.26777 13.2952 0.534658 11.8192 0.223642C10.9203 0.0348108 10.2988 0.0125954 5.41575 0.0125954H0V13.1752ZM9.16682 5.57756C10.4764 5.81082 11.2865 6.3551 11.7415 7.33258C12.363 8.6544 12.0079 10.2539 10.9092 11.0537C10.1101 11.6424 9.52195 11.7868 7.80178 11.7868H6.32577V8.62108V5.45538H7.41336C8.01264 5.45538 8.80059 5.51092 9.16682 5.57756Z" fill="#F0F8FF"/>
<path d="M59.6159 13.1408L59.6492 26.2812H62.7566H65.864L65.8973 21.8826L65.9195 17.4839L68.2834 17.4062C70.969 17.3284 72.0122 17.1285 73.3551 16.4509C74.6535 15.7956 76.1628 14.4071 76.6955 13.3741C76.7843 13.2075 76.8731 13.0408 76.9064 13.0075C76.9397 12.9742 77.0951 12.6521 77.2615 12.2855C78.2492 10.1306 78.2603 7.29816 77.2726 5.06551C77.0063 4.44347 76.64 3.82144 76.2405 3.28827C75.7633 2.65513 74.1874 1.23334 73.9655 1.23334C73.9322 1.23334 73.7213 1.11116 73.4883 0.977865C73.2663 0.833465 72.9778 0.689064 72.8557 0.644633C72.7336 0.61131 72.2897 0.46691 71.8569 0.333617C71.1022 0.0892474 70.9025 0.0781397 65.3313 0.0448165L59.5938 0.000385655L59.6159 13.1408ZM68.7939 5.57646C69.1934 5.65421 69.6262 5.7764 69.7483 5.85415C69.8704 5.94302 70.0257 6.00966 70.1034 6.00966C70.3143 6.00966 70.7804 6.44286 71.1799 7.00936C71.5128 7.48699 71.5239 7.55363 71.5239 8.61998C71.5239 9.63078 71.5017 9.77518 71.2132 10.2528C71.0467 10.5416 70.6805 10.9304 70.4141 11.1192C69.6373 11.6524 69.0491 11.7857 67.3955 11.7857H65.9195V8.61998V5.45428H66.996C67.5842 5.45428 68.3943 5.50981 68.7939 5.57646Z" fill="#F0F8FF"/>
<path d="M98.237 13.0842L98.2703 26.1691L101.3 26.2024L104.319 26.2246V13.1175V0.0103935H101.267H98.2148L98.237 13.0842Z" fill="#F0F8FF"/>
<path d="M24.3065 8.34537C24.1511 8.3898 23.8071 8.48977 23.5296 8.56753C22.9082 8.74525 21.5986 9.34507 21.5542 9.47836C21.532 9.52279 21.4654 9.56722 21.3988 9.56722C20.9993 9.56722 18.7576 11.8221 18.7576 12.222C18.7576 12.2886 18.7132 12.3441 18.6466 12.3441C18.5911 12.3441 18.5356 12.4108 18.5356 12.4997C18.5356 12.5885 18.5023 12.6774 18.4579 12.6996C18.3247 12.7551 17.8031 13.9103 17.7033 14.3435C17.6589 14.5546 17.5923 14.7767 17.5479 14.8434C17.3703 15.1433 17.215 16.3096 17.215 17.5092C17.2039 20.164 17.9918 22.2522 19.6898 24.085C20.4444 24.8959 21.4432 25.629 22.3644 26.0511C22.7306 26.2177 23.1079 26.3954 23.2078 26.451C23.3077 26.5065 23.9735 26.6287 24.6949 26.7398C25.9157 26.9175 26.0599 26.9175 27.1475 26.7398C27.991 26.5954 28.5126 26.4398 29.1008 26.1399C29.5447 25.9178 29.9331 25.7067 29.9664 25.6734C29.9997 25.629 30.1883 25.5068 30.3881 25.3957C30.5768 25.2735 30.7432 25.1402 30.7432 25.0958C30.7432 25.0514 30.7987 25.0069 30.8542 25.0069C30.9208 25.0069 30.9652 25.3069 30.9652 25.6734V26.3399L33.662 26.3177L36.3476 26.2843L36.3809 17.5315L36.4031 8.78968H33.6953H30.9763L30.943 9.45614L30.9097 10.1226L30.599 9.83381C30.2549 9.51168 29.1118 8.84522 28.7234 8.73414C28.5792 8.70082 28.3683 8.62306 28.2462 8.57863C27.5582 8.30094 27.1031 8.23429 25.9046 8.2454C25.1832 8.2454 24.4619 8.28983 24.3065 8.34537ZM28.1574 13.8548C28.9121 14.1103 29.9553 14.9545 29.9664 15.3099C29.9664 15.3877 29.9997 15.4543 30.0552 15.4543C30.0996 15.4543 30.2105 15.6209 30.2993 15.8098C30.4214 16.0763 30.4658 16.5651 30.4658 17.5648C30.4658 18.8755 30.4436 18.9866 30.1661 19.4642C29.3893 20.7749 28.1685 21.4192 26.6481 21.3081C25.6826 21.2414 25.1166 20.9971 24.4175 20.3195C23.8848 19.8085 23.6628 19.3864 23.463 18.5645C22.9636 16.4984 23.8848 14.5324 25.6493 13.8992C26.3929 13.6326 27.4472 13.6104 28.1574 13.8548Z" fill="#F0F8FF"/>
<path d="M83.955 8.38838C83.2003 8.58832 82.146 8.99931 81.7354 9.25478C81.5579 9.36586 81.3137 9.48804 81.2138 9.52137C81.1029 9.5658 81.0141 9.63245 81.0141 9.67688C81.0141 9.73241 80.9253 9.79906 80.8143 9.83238C80.5147 9.93235 79.1496 11.3208 78.6835 12.0095C78.4616 12.3427 78.1397 12.8981 77.9844 13.2425C77.7069 13.8312 77.6181 14.0866 77.2297 15.3418C77.0299 15.9861 77.0188 18.9851 77.2186 19.6405C77.2852 19.9071 77.4073 20.3292 77.485 20.5847C77.8845 22.0509 79.1496 23.8948 80.4814 24.9722C81.0141 25.4054 82.1682 26.083 82.6233 26.2385C82.8674 26.3273 83.0894 26.4162 83.1227 26.4495C83.2003 26.5273 83.2669 26.5384 84.6986 26.7494C85.8416 26.9161 85.997 26.9161 86.9847 26.7383C87.9169 26.5717 88.3497 26.4273 89.3375 25.9719C89.4817 25.8941 89.859 25.6498 90.1698 25.4165L90.7247 24.9944L90.7802 25.6387L90.8357 26.2829L93.5324 26.3162L96.2181 26.3385V17.5634V8.78826H93.4991H90.7802V9.47694C90.7802 9.86571 90.7358 10.1212 90.6914 10.0656C90.3917 9.64355 89.1155 8.91044 87.9502 8.49946C87.2289 8.24398 84.7651 8.17733 83.955 8.38838ZM88.0834 13.92C88.9157 14.2421 89.7259 14.9864 90.0921 15.7861C90.3363 16.3082 90.3806 16.5526 90.3806 17.5078C90.3806 18.4853 90.3363 18.6963 90.0699 19.2517C89.7148 20.0071 89.0933 20.6402 88.3719 21.0179C87.928 21.2511 87.7061 21.2844 86.7406 21.2844C85.6974 21.2844 85.5864 21.2622 85.1203 20.9623C84.3323 20.4625 83.8995 20.0071 83.5555 19.2739C83.2669 18.663 83.2336 18.4853 83.2336 17.4967C83.2336 16.5192 83.2669 16.3304 83.5555 15.7306C84.3656 14.02 86.3077 13.2536 88.0834 13.92Z" fill="#F0F8FF"/>
<path d="M37.4313 8.82106C37.398 8.8655 37.4313 8.96547 37.4867 9.04322C37.5422 9.12097 37.7531 9.47642 37.9529 9.84297C38.1526 10.2095 38.4412 10.7316 38.5965 11.0093C38.7519 11.287 39.0737 11.8535 39.329 12.2867C39.5731 12.7088 39.8506 13.2086 39.9505 13.3974C40.4277 14.275 40.8716 15.0747 40.9493 15.1747C40.9937 15.2302 41.2045 15.6079 41.4265 16.0078C41.6373 16.4076 41.9925 17.0519 42.2255 17.4518C42.8026 18.4515 44.5894 21.6172 44.9112 22.2281C45.0666 22.5058 45.2441 22.7946 45.2996 22.8723C45.3773 22.9612 45.3218 23.1945 45.0999 23.6499C44.9223 23.9942 44.7558 24.3052 44.7225 24.3385C44.6892 24.3719 44.5672 24.594 44.4673 24.8384C44.3563 25.0828 43.1799 27.4709 41.8482 30.1479L39.4289 35.002H42.5585H45.6991L48.7622 28.8483C50.449 25.4604 51.8252 22.6391 51.8252 22.5724C51.8252 22.5169 51.8584 22.4502 51.9139 22.428C52.0027 22.3947 52.713 20.984 52.713 20.8507C52.713 20.7952 52.8018 20.6286 52.9238 20.4731C53.0348 20.3064 53.168 20.051 53.2124 19.8955C53.2568 19.74 53.3345 19.5956 53.3678 19.5622C53.4232 19.5178 53.8672 18.6292 54.9215 16.4521C55.0768 16.1188 55.2433 15.8189 55.2766 15.7856C55.321 15.7523 55.3876 15.6079 55.432 15.4524C55.4763 15.2969 55.5984 15.0525 55.7094 14.897C55.8204 14.7415 55.9425 14.4971 55.9868 14.3416C56.0312 14.1861 56.1644 13.9306 56.2754 13.7751C56.3864 13.6196 56.5084 13.3641 56.5417 13.1975C56.5861 13.0309 56.6638 12.8976 56.7193 12.8976C56.7748 12.8976 56.8192 12.8421 56.8192 12.7754C56.8192 12.5977 58.5172 9.18762 58.617 9.14319C58.6725 9.12097 58.7058 9.03211 58.7058 8.94325C58.7058 8.82106 58.162 8.78774 55.6428 8.76553C53.9559 8.74331 52.5465 8.75442 52.5021 8.78774C52.4577 8.82106 52.3357 9.04322 52.2247 9.28759C52.1248 9.53196 51.9805 9.83187 51.9139 9.95405C51.7142 10.3206 51.6476 10.4539 50.9817 11.8424C50.6377 12.5755 50.1161 13.6751 49.8275 14.2861C49.5279 14.897 49.1395 15.7301 48.9397 16.1522C48.7511 16.5631 48.5513 16.8742 48.4958 16.8408C48.4403 16.8075 48.3293 16.6409 48.2406 16.4743C48.1629 16.3077 47.9187 15.8745 47.719 15.5079C47.5192 15.1414 47.1308 14.4194 46.8533 13.8973C45.8989 12.0645 45.4106 11.1759 45.1443 10.6761C44.9889 10.3984 44.7003 9.8763 44.5117 9.50974L44.1565 8.84328L40.8161 8.78774C38.985 8.75442 37.4645 8.77663 37.4313 8.82106Z" fill="#F0F8FF"/>
</svg>
