<svg width="289" height="163" viewBox="0 0 289 163" fill="none" xmlns="http://www.w3.org/2000/svg">
<path d="M8.09204 69.5664V103.843L16.2707 103.785L24.4205 103.699L24.5072 92.2441L24.565 80.7895L30.7207 80.587C34.4488 80.4713 37.4833 80.2399 38.437 80.0085C42.1362 79.0251 44.0147 78.2441 46.529 76.5374C48.1763 75.4383 51.6154 71.9672 51.8755 71.1573C51.9622 70.8391 52.1934 70.5788 52.3379 70.5788C52.4824 70.5788 52.598 70.4052 52.598 70.1738C52.598 69.9424 52.7714 69.5664 52.9737 69.3639C53.1471 69.1614 53.5228 68.525 53.7829 67.9754C55.5747 64.0705 55.8926 62.5953 55.8926 57.7068C55.8637 53.5704 55.8348 53.2523 54.9389 50.6779C53.4361 46.3101 52.2512 44.4299 48.9566 41.1902C46.3267 38.558 42.7142 36.6489 38.8705 35.839C36.5296 35.3472 34.9112 35.2894 22.1952 35.2894H8.09204V69.5664ZM31.9634 49.7812C35.3736 50.3886 37.4833 51.806 38.6682 54.3514C40.2866 57.7936 39.3618 61.9589 36.5007 64.0415C34.4199 65.5746 32.8882 65.9506 28.4087 65.9506H24.565V57.7068V49.463H27.3972C28.9578 49.463 31.0097 49.6076 31.9634 49.7812Z" fill="#003087"/>
<path d="M163.343 69.4796L163.43 103.699H171.522H179.614L179.7 92.2441L179.758 80.7896L185.914 80.5871C192.908 80.3846 195.624 79.8639 199.121 78.0995C202.502 76.3929 206.433 72.7771 207.82 70.087C208.051 69.6532 208.282 69.2193 208.369 69.1325C208.456 69.0457 208.86 68.2069 209.294 67.2523C211.866 61.6407 211.895 54.2647 209.323 48.4506C208.629 46.8308 207.676 45.2109 206.635 43.8225C205.392 42.1737 201.289 38.4712 200.711 38.4712C200.624 38.4712 200.075 38.1531 199.468 37.806C198.89 37.4299 198.139 37.0539 197.821 36.9382C197.503 36.8514 196.347 36.4754 195.22 36.1283C193.254 35.4919 192.734 35.463 178.226 35.3762L163.285 35.2605L163.343 69.4796ZM187.243 49.7812C188.284 49.9837 189.411 50.3019 189.729 50.5043C190.047 50.7357 190.451 50.9093 190.653 50.9093C191.203 50.9093 192.416 52.0374 193.457 53.5126C194.324 54.7564 194.353 54.93 194.353 57.7068C194.353 60.3391 194.295 60.7151 193.543 61.9589C193.11 62.711 192.156 63.7234 191.463 64.2151C189.44 65.6036 187.908 65.9507 183.602 65.9507H179.758V57.7068V49.463H182.561C184.093 49.463 186.203 49.6076 187.243 49.7812Z" fill="#003087"/>
<path d="M263.915 69.335L264.002 103.409L271.891 103.496L279.752 103.554V69.4217V35.2894H271.805H263.857L263.915 69.335Z" fill="#003087"/>
<path d="M71.3832 56.9837C70.9786 57.0994 70.0827 57.3597 69.3602 57.5622C67.7418 58.025 64.3316 59.587 64.216 59.9341C64.1582 60.0498 63.9848 60.1655 63.8114 60.1655C62.771 60.1655 56.9332 66.0374 56.9332 67.0787C56.9332 67.2523 56.8176 67.3969 56.6442 67.3969C56.4997 67.3969 56.3552 67.5705 56.3552 67.8019C56.3552 68.0333 56.2685 68.2647 56.1529 68.3225C55.8061 68.4672 54.4478 71.4754 54.1877 72.6035C54.0721 73.1531 53.8987 73.7317 53.7831 73.9052C53.3207 74.6862 52.9161 77.7234 52.9161 80.8474C52.8872 87.7606 54.9391 93.1987 59.3608 97.9714C61.326 100.083 63.927 101.992 66.3257 103.091C67.2794 103.525 68.262 103.988 68.5221 104.133C68.7822 104.277 70.5162 104.595 72.3947 104.885C75.5737 105.347 75.9494 105.347 78.7816 104.885C80.978 104.509 82.3363 104.104 83.868 103.323C85.024 102.744 86.0355 102.195 86.1222 102.108C86.2089 101.992 86.7002 101.674 87.2204 101.385C87.7117 101.066 88.1452 100.719 88.1452 100.604C88.1452 100.488 88.2897 100.372 88.4342 100.372C88.6076 100.372 88.7232 101.153 88.7232 102.108V103.843L95.7459 103.785L102.74 103.699L102.826 80.9052L102.884 58.1407H95.8326H88.7521L88.6654 59.8762L88.5787 61.6118L87.7695 60.8597C86.8736 60.0209 83.8969 58.2853 82.8854 57.9961C82.5097 57.9093 81.9606 57.7068 81.6427 57.5911C79.8509 56.868 78.666 56.6944 75.5448 56.7233C73.6663 56.7233 71.7878 56.839 71.3832 56.9837ZM81.4115 71.3308C83.3767 71.9961 86.0933 74.1945 86.1222 75.1201C86.1222 75.3226 86.2089 75.4961 86.3534 75.4961C86.469 75.4961 86.758 75.93 86.9892 76.4217C87.3071 77.116 87.4227 78.3887 87.4227 80.992C87.4227 84.4052 87.3649 84.6945 86.6424 85.9383C84.6194 89.3515 81.4404 91.0292 77.4811 90.74C74.9668 90.5664 73.4929 89.93 71.6722 88.1656C70.285 86.835 69.707 85.7358 69.1868 83.5953C67.8863 78.2151 70.285 73.0953 74.8801 71.4465C76.8164 70.7523 79.5619 70.6945 81.4115 71.3308Z" fill="#003087"/>
<path d="M226.721 57.0994C224.755 57.62 222.01 58.6903 220.941 59.3556C220.478 59.6448 219.842 59.963 219.582 60.0498C219.293 60.1655 219.062 60.3391 219.062 60.4548C219.062 60.5994 218.831 60.7729 218.542 60.8597C217.762 61.1201 214.207 64.7358 212.993 66.5292C212.415 67.3969 211.577 68.8432 211.172 69.7399C210.45 71.273 210.219 71.9383 209.207 75.2069C208.687 76.8846 208.658 84.6945 209.178 86.4011C209.352 87.0953 209.67 88.1945 209.872 88.8598C210.912 92.678 214.207 97.4797 217.675 100.285C219.062 101.414 222.068 103.178 223.253 103.583C223.888 103.814 224.466 104.046 224.553 104.133C224.755 104.335 224.929 104.364 228.657 104.914C231.634 105.347 232.038 105.347 234.61 104.885C237.038 104.451 238.165 104.075 240.737 102.889C241.113 102.686 242.095 102.05 242.905 101.443L244.35 100.343L244.494 102.021L244.639 103.699L251.661 103.785L258.655 103.843V80.992V58.1407H251.575H244.494V59.9341C244.494 60.9465 244.378 61.6118 244.263 61.4672C243.483 60.368 240.159 58.4589 237.125 57.3886C235.246 56.7233 228.83 56.5498 226.721 57.0994ZM237.471 71.5044C239.639 72.3432 241.749 74.2813 242.702 76.3639C243.338 77.7234 243.454 78.3598 243.454 80.8474C243.454 83.3929 243.338 83.9424 242.644 85.3887C241.72 87.3557 240.101 89.0044 238.223 89.9879C237.067 90.5954 236.489 90.6821 233.974 90.6821C231.258 90.6821 230.969 90.6243 229.755 89.8433C227.703 88.5416 226.576 87.3557 225.68 85.4466C224.929 83.8557 224.842 83.3929 224.842 80.8185C224.842 78.273 224.929 77.7813 225.68 76.2193C227.79 71.7647 232.847 69.7688 237.471 71.5044Z" fill="#003087"/>
<path d="M105.572 58.2275C105.485 58.3432 105.572 58.6035 105.716 58.806C105.861 59.0085 106.41 59.9341 106.93 60.8887C107.45 61.8432 108.202 63.2027 108.606 63.9259C109.011 64.649 109.849 66.1242 110.514 67.2523C111.149 68.3515 111.872 69.6532 112.132 70.1449C113.375 72.43 114.531 74.5127 114.733 74.773C114.849 74.9176 115.398 75.9011 115.976 76.9424C116.525 77.9838 117.45 79.6614 118.057 80.7028C119.559 83.3061 124.212 91.5499 125.05 93.1408C125.455 93.864 125.917 94.616 126.062 94.8185C126.264 95.0499 126.12 95.6574 125.542 96.8433C125.079 97.74 124.646 98.5499 124.559 98.6367C124.472 98.7235 124.154 99.302 123.894 99.9384C123.605 100.575 120.542 106.794 117.074 113.765L110.774 126.405H118.924H127.102L135.079 110.381C139.471 101.558 143.055 94.2111 143.055 94.0375C143.055 93.8929 143.142 93.7193 143.286 93.6615C143.517 93.5747 145.367 89.9012 145.367 89.554C145.367 89.4094 145.598 88.9755 145.916 88.5706C146.205 88.1367 146.552 87.4714 146.667 87.0664C146.783 86.6615 146.985 86.2854 147.072 86.1987C147.217 86.083 148.373 83.7689 151.118 78.0995C151.523 77.2317 151.956 76.4507 152.043 76.3639C152.158 76.2771 152.332 75.9011 152.447 75.4961C152.563 75.0912 152.881 74.4548 153.17 74.0499C153.459 73.6449 153.777 73.0085 153.892 72.6036C154.008 72.1986 154.355 71.5333 154.644 71.1284C154.933 70.7234 155.251 70.0581 155.337 69.6242C155.453 69.1903 155.655 68.8432 155.8 68.8432C155.944 68.8432 156.06 68.6986 156.06 68.5251C156.06 68.0622 160.482 59.182 160.742 59.0663C160.886 59.0085 160.973 58.7771 160.973 58.5457C160.973 58.2275 159.557 58.1407 152.997 58.0829C148.604 58.025 144.933 58.0539 144.818 58.1407C144.702 58.2275 144.384 58.806 144.095 59.4424C143.835 60.0787 143.46 60.8597 143.286 61.1779C142.766 62.1325 142.593 62.4796 140.859 66.0953C139.963 68.0044 138.604 70.868 137.853 72.4589C137.073 74.0499 136.061 76.2193 135.541 77.3185C135.05 78.3887 134.53 79.1986 134.385 79.1119C134.241 79.0251 133.952 78.5912 133.72 78.1573C133.518 77.7234 132.882 76.5953 132.362 75.6408C131.842 74.6862 130.83 72.8061 130.108 71.4465C127.622 66.6738 126.351 64.3597 125.657 63.0581C125.253 62.3349 124.501 60.9754 124.01 60.0209L123.085 58.2853L114.386 58.1407C109.618 58.0539 105.658 58.1118 105.572 58.2275Z" fill="#003087"/>
</svg>
